<svg xmlns="http://www.w3.org/2000/svg" viewBox="0 0 482.97 1263.34">
  <defs>
    <style>
      .a,.b{fill:none;}.b{stroke:#f05662;stroke-width:0.3px;}.c{fill:url(#a);}.d{fill:red;}
    </style>
    <pattern id="a" width="57.6" height="57.6" patternTransform="translate(-848.51 -29.83)" patternUnits="userSpaceOnUse" viewBox="0 0 57.6 57.6">
      <path class="a" d="M0 0h57.6v57.6H0z"/>
      <path class="b" d="M52.5 3.6h3M38.1 3.6h3M23.7 3.6h3M9.3 3.6h3M45.3 10.8h3M30.9 10.8h3M16.5 10.8h3M2.1 10.8h3M52.5 18h3M38.1 18h3M23.7 18h3M9.3 18h3M45.3 25.2h3M30.9 25.2h3M16.5 25.2h3M2.1 25.2h3M52.5 32.4h3M38.1 32.4h3M23.7 32.4h3M9.3 32.4h3M45.3 39.6h3M30.9 39.6h3M16.5 39.6h3M2.1 39.6h3M52.5 46.8h3M38.1 46.8h3M23.7 46.8h3M9.3 46.8h3M45.3 54h3M30.9 54h3M16.5 54h3M2.1 54h3M54 2.1v3M39.6 2.1v3M25.2 2.1v3M10.8 2.1v3M46.8 9.3v3M32.4 9.3v3M18 9.3v3M3.6 9.3v3M54 16.5v3M39.6 16.5v3M25.2 16.5v3M10.8 16.5v3M46.8 23.7v3M32.4 23.7v3M18 23.7v3M3.6 23.7v3M54 30.9v3M39.6 30.9v3M25.2 30.9v3M10.8 30.9v3M46.8 38.1v3M32.4 38.1v3M18 38.1v3M3.6 38.1v3M54 45.3v3M39.6 45.3v3M25.2 45.3v3M10.8 45.3v3M46.8 52.5v3M32.4 52.5v3M18 52.5v3M3.6 52.5v3"/>
    </pattern>
  </defs>
  <path class="c" d="M469.15 641.46c-1.8-33.39-20.61-62.2-22.6-65.18a196.74 196.74 0 0 0-28.51-43.27 3.38 3.38 0 0 0 .26-2.46c-7.17-25.16-30.61-49.5-35.46-54.34-3.36-21.39-22.83-47-27.08-52.4.12-9.57 1-72.51 2.94-88 2.07-16.55 27.35-55.35 47.66-86.52 19.32-29.64 16.86-73.08 15.24-101.82-.26-4.54-.49-8.69-.61-12.33-.82-25.24-22.38-45.44-26.57-49.13-2.22-5.38-15.16-35.06-35.28-46.55C337.33 27.01 220.58 4.79 206.09 2.79c-2-.27-4.1-.6-6.19-.93-14.21-2.25-30.33-4.8-47 7.54-17.28 12.74-25.68 26.56-23.49 38.39-11 8.5-30.69 25.34-45.07 46.68-.11.15-11.36 15.22-17.41 20.46-7.34 6.36-13.54 19.65-13.54 29 0 2.39.21 4.57.41 6.68.58 6 .73 9.3-2.48 12.74-6.14 6.58-24.46 27.87-29.77 35.83-.89 1.34-2.19 3-3.66 5-7.77 10.21-19.51 25.63-10.41 34.73 6 6 14.71 11.57 19.77 14.57-3.94 4.07-9.78 11.23-10.17 18.19a11.58 11.58 0 0 0 3.11 8.73c5.42 5.83 16.25 12.6 24.15 17.53l3 1.9c-10.66 2.26-30.57 7.38-29.8 22.67a16.58 16.58 0 0 0 3.83 12.6c2.65 3.07 2.88 6.79.54 8.86-.24.21-23.66 21.79-21.82 40.42 1 10.18 6 43.46 27.83 44h2.83c15 0 52.74-2.16 83.93-8.94a3.28 3.28 0 0 0-.42.58 3.43 3.43 0 0 0 1.68 4.51c.34.16 33.68 16.89 36.25 117.58a3.34 3.34 0 0 0 .41 1.47c-16.11 11.14-33 27.54-46.75 51.76-50.55 89-79.56 151.13-86.24 184.8-7.36 37.1-1.62 43.79 8.36 51.63 1.31 1 2.68 2.1 4.05 3.36l1.58 1.44c9.26 8.45 19.76 18 18.38 28.21-.42 3.13-2.13 10-4.28 18.77-6.12 24.83-16.37 66.38-13.34 88 4 28.78 22.92 92.9 30.52 106.91 10.23 18.91 27.57 53.79 28.59 75 1.12 23.21-.56 104.42-.57 105.24a3.41 3.41 0 0 0 3.34 3.48h243.74a3.38 3.38 0 0 0 1.58 1 3.38 3.38 0 0 0 3.48-1h88.17a3.41 3.41 0 0 0 5.62-3.73c-.21-.46-5.45-11.38-19.49-28.56-.17-.21-.37-.39-.54-.59a3.37 3.37 0 0 0 1.1-1.46c17.2-46 16.92-100.08 16.82-120.44v-6.84c.42-10.46 5.9-73 6-73.61a3.4 3.4 0 0 0-1.87-3.34c2.21-6.3 4.43-12.53 6.56-18.51 6.55-18.38 12.73-35.75 16.09-47.45 9.83-34.2 9.12-114.43 9.09-117.82a3.37 3.37 0 0 0-1.73-2.87c2.1-8.72 4.1-17.35 5.92-25.8 16.86-78.16-5.87-163.21-7.63-169.7z"/>
  <path class="d" d="M65.63 229.79c-1.72-4.1-3.29-13.1-3.75-16.23a3.412 3.412 0 0 0-6.75 1c.07.49 1.8 12.15 4.21 17.89.81 1.92 0 6.89-2.12 10.18-1 1.46-1.73 1.82-1.86 1.76-5.89-2.06-18.93-6.12-26.15-6.72a3.412 3.412 0 0 0-.57 6.8c6.06.51 17.95 4.08 24.46 6.36a6.88 6.88 0 0 0 2.29.39 8.27 8.27 0 0 0 6-2.88c.26-.27.49-.62.74-.94a189.9 189.9 0 0 1 2.64 41.84 3.41 3.41 0 0 0 3.26 3.56h.15a3.41 3.41 0 0 0 3.4-3.26c.76-17.55-1.23-44.49-5.46-51.56a14.9 14.9 0 0 0-.49-8.19zM106.6 182.02c-11.59-3.43-37.5-7.6-38.6-7.77a3.414 3.414 0 1 0-1.09 6.74c.13 0 6.27 1 13.85 2.39l-.3.05a3.41 3.41 0 0 0 .64 6.76 3.55 3.55 0 0 0 .64-.06c8.51-1.62 23.67-1.43 23.83-1.43a3.55 3.55 0 0 0 3.42-2.9 3.41 3.41 0 0 0-2.39-3.78zM83.22 194.16a3.412 3.412 0 1 0-6.79-.68 70.61 70.61 0 0 0 0 10.41 3.41 3.41 0 0 0 3.4 3.15h.27a3.41 3.41 0 0 0 3.14-3.66 63.85 63.85 0 0 1-.02-9.22zM270.03 281.02c17.75-12.85 21.89-43.55 21.6-58-.31-15.35-16.58-33.93-37.08-34.9-19.13-.84-44.25 16.36-45.31 17.09a3.41 3.41 0 1 0 3.88 5.61 131 131 0 0 1 17.18-9.66 149.31 149.31 0 0 0-9.39 15.23 3.41 3.41 0 1 0 6 3.19c2.73-5.16 11-19.33 16.47-22.9a3.26 3.26 0 0 0 .51-.5 36.11 36.11 0 0 1 10.26-1.22c16.64.78 30.33 16.07 30.58 28.22.31 15.34-4.43 41.93-18.78 52.32-2.58 1.87-5 3.71-7.38 5.48-12.25 9.21-21.1 15.86-31.07 13.57s-15.91-7.49-14.42-26.26a3.41 3.41 0 0 0-6.8-.54c-1.56 19.65 4.51 30 19.7 33.45a25 25 0 0 0 5.61.65c10.58 0 19.83-6.95 31.09-15.42 2.38-1.74 4.8-3.56 7.35-5.41z"/>
  <path class="d" d="M241.56 205.24c-11.92 10.92-3.44 30.13-3.08 30.94a3.41 3.41 0 0 0 6.22-2.8c-.07-.15-6.8-15.53 1.47-23.11 7.89-7.23 21.22 3.95 21.35 4.06a3.412 3.412 0 0 0 4.43-5.19c-.73-.63-18.04-15.2-30.39-3.9zM227.39 249.57c-5.45 2.48-8.39 6.35-7.49 9.86.36 1.38 1.85 4.55 8 4 2.14-.17 4.33-.54 6.44-.89 2.89-.49 8.28-1.39 9.07-.37a3.41 3.41 0 0 0 5.38-4.19c-3.3-4.23-9.55-3.19-15.59-2.17-1.48.25-3 .5-4.45.68a13.49 13.49 0 0 1 1.42-.74c8.36-3.8 5.43-18.79 4.76-21.76a3.415 3.415 0 0 0-6.66 1.51c1.36 5.86 1.24 13.1-.88 14.07z"/>
  <path class="d" d="M263.66 261.44c-9.35 5.88-12.85 7.87-24.29 10.66-3.61.88-6.34 1.8-8.34 2.48-4 1.36-4 1.36-5.18-.11a3.41 3.41 0 1 0-5.4 4.17c2.23 2.88 4.37 3.82 6.63 3.82a20 20 0 0 0 6.13-1.42c2-.67 4.45-1.5 7.78-2.31 11.78-2.88 15.75-4.87 26.31-11.51 11-6.89 12-36.72 12.12-42.63a3.41 3.41 0 0 0-3.35-3.47 3.49 3.49 0 0 0-3.47 3.35c-.24 13.16-3.16 33.32-8.94 36.97z"/>
  <path class="d" d="M469.15 641.46c-1.8-33.39-20.61-62.2-22.6-65.18a196.74 196.74 0 0 0-28.51-43.27 3.38 3.38 0 0 0 .26-2.46c-7.17-25.16-30.61-49.5-35.46-54.34-3.36-21.39-22.83-47-27.08-52.4.12-9.57 1-72.51 2.94-88 2.07-16.55 27.35-55.35 47.66-86.52 19.32-29.64 16.86-73.08 15.24-101.82-.26-4.54-.49-8.69-.61-12.33-.82-25.24-22.38-45.44-26.57-49.13-2.22-5.38-15.16-35.06-35.28-46.55C337.33 27.01 220.58 4.79 206.09 2.79c-2-.27-4.1-.6-6.19-.93-14.21-2.25-30.33-4.8-47 7.54-17.28 12.74-25.68 26.56-23.49 38.39-11 8.5-30.69 25.34-45.07 46.68-.11.15-11.36 15.22-17.41 20.46-7.34 6.36-13.54 19.65-13.54 29 0 2.39.21 4.57.41 6.68.58 6 .73 9.3-2.48 12.74-6.14 6.58-24.46 27.87-29.77 35.83-.89 1.34-2.19 3-3.66 5-7.77 10.21-19.51 25.63-10.41 34.73 6 6 14.71 11.57 19.77 14.57-3.94 4.07-9.78 11.23-10.17 18.19a11.58 11.58 0 0 0 3.12 8.73c5.42 5.83 16.25 12.6 24.15 17.53l3 1.9c-10.66 2.26-30.57 7.38-29.8 22.67a16.58 16.58 0 0 0 3.83 12.6c2.65 3.07 2.88 6.79.54 8.86-.24.21-23.66 21.79-21.82 40.42 1 10.18 6 43.46 27.83 44h2.83c15 0 52.74-2.16 83.93-8.94a3.27 3.27 0 0 0-.42.58 3.43 3.43 0 0 0 1.68 4.51c.34.16 33.68 16.89 36.25 117.58a3.34 3.34 0 0 0 .41 1.47c-16.11 11.14-33 27.54-46.75 51.76-50.55 89-79.56 151.13-86.24 184.8-7.36 37.1-1.62 43.79 8.36 51.63 1.31 1 2.68 2.1 4.05 3.36l1.58 1.44c9.26 8.45 19.76 18 18.38 28.21-.42 3.13-2.13 10-4.28 18.77-6.12 24.83-16.37 66.38-13.34 88 4 28.78 22.92 92.9 30.52 106.91 10.23 18.91 27.57 53.79 28.59 75 1.12 23.21-.56 104.42-.57 105.24a3.41 3.41 0 0 0 3.34 3.48h.07a3.41 3.41 0 0 0 3.41-3.34c.07-3.35 1.7-82.27.57-105.71-1.09-22.57-18.89-58.52-29.41-77.94-6.34-11.71-21.62-62.59-27.8-93.4 2.36-2.38 12.15-13.75 10.58-37.05 0-.65.93-15.09-7.14-26 2.56-12.21 5.48-24.11 7.81-33.54s3.95-16 4.42-19.49c1.86-13.71-10-24.58-20.55-34.16l-1.57-1.44c-1.3-1.19-2.57-2.21-3.82-3.19.47-10.23-6.08-21.23-9.45-26.16a181 181 0 0 1 2.93-19.28c1.92-9.7 5.83-21.94 11.58-36.54l3.18 12.37a1.71 1.71 0 0 0 1.65 1.28h.23a1.71 1.71 0 0 0 1.47-1.73l-.5-26.39c.66-1.54 1.36-3.12 2.06-4.7 3.33 15 9.58 30.14 13.4 38.6a30.44 30.44 0 0 0 3.31 7 1.71 1.71 0 0 0 2.93-1.73c0-.09-1.36-2.71-3.26-7-5.23-15.3-7.44-44.35-8.1-55 .61-1.29 1.24-2.6 1.86-3.91 2.39 7.42 6 19.4 6.27 24.89a1.7 1.7 0 0 0 1.7 1.62 1.71 1.71 0 0 0 1.67-1.7c0-1.23 0-27.83-1.3-42 1.91-3.81 3.9-7.73 5.94-11.71 3.29 5 8.17 15.59 5.47 31.78a1.71 1.71 0 0 0 3.29.84c.47-1.37 11-32.24-.29-48.87.78-1.47 1.6-3 2.4-4.49a13.7 13.7 0 0 0 5.12 1c3.29 0 6.92-1.32 10.12-5.27 6.53-8.06 7.91-18.9 4.19-31.43 3.59-6.44 7.26-13 11.1-19.74 36.53-64.29 97.46-71.33 98.07-71.39 14.46-1.5 30-28.55 31.75-31.63a3.433 3.433 0 0 0-6-3.34c-5.86 10.44-18.24 27.32-26.51 28.18-1.07.11-12 1.37-27.15 7.33 12.92-21.15 65.8-99.82 141.75-109.9v15.89l-13 19.46c-1 1.08-25.69 29.12-37.92 34.66a1.71 1.71 0 0 0 1.34 3.14c1.31-.53 26.65-10.8 44.52-24.26-7 8.88-15.24 17.83-15.37 18a1.71 1.71 0 0 0 1.9 2.74c10.69-4.4 24-17 30.75-23.92a223 223 0 0 1-8.09 22.38 1.71 1.71 0 0 0 2.22 2.25c10.92-4.49 18-16.26 21.23-22.69 1.48 8.35-1.23 17.81-1.27 17.92a1.7 1.7 0 0 0 2.36 2 23 23 0 0 0 12.34-13.68 30.3 30.3 0 0 1 0 10.64 1.71 1.71 0 0 0 2.74 1.71c4.65-3.76 7-7 8.08-9.55.28 1.26.52 2.5.68 3.72a3.42 3.42 0 0 0 1 2c.24.23 20.67 20.11 30.77 42.24-21.13-20.28-39.31-26.78-40.51-27.2a3.412 3.412 0 0 0-2.23 6.45c.45.16 45.17 16.29 75.24 77.72a3.54 3.54 0 0 0 .25.43c.2.29 19.94 29.48 21.58 62.26a3.38 3.38 0 0 0 .13.77c.25.87 24.71 87.57 7.62 166.78-11.24 52.07-28.76 111.33-41.55 154.59-7 23.77-12.58 42.54-14.73 52.21-6.87 30.93-16.56 93.88-13.29 131.1a3.41 3.41 0 0 0 3.42 3.13h.3a3.41 3.41 0 0 0 3.1-3.7c-3.2-36.46 6.37-98.49 13.15-129 2.1-9.44 7.62-28.12 14.61-51.75 9.12-30.85 20.64-69.81 30.59-108.57-.35 26.14-1.94 74.41-8.75 98.09-3.3 11.5-9.46 28.77-16 47-13 36.42-27.67 77.71-27.67 94.62v55.86a3.41 3.41 0 1 0 6.82 0v-55.86c0-10.33 6.53-32.21 14.45-55.68-1.67 19.44-4.35 51.13-4.64 58.53-.06 1.47 0 3.9 0 7.15.1 19.91.36 72.59-16.1 117.24-13.29-9.9-35-12-47.48-13.22-2.31-.22-4.85-.47-6.13-.69 6.33-22.15 12.75-44.87 14.62-52.37 4.08-16.33 5.37-52.53 1.1-67.17-3.86-13.24 2.91-65.14 5.79-87.3 2.4-18.39 3.95-54.06 5.45-88.55.65-14.87 1.28-29.48 2-42.31a219.57 219.57 0 0 0-.42-29.86 3.24 3.24 0 0 0 .42.07 3.38 3.38 0 0 0 .6-.05c21.46-3.84 40.45-18.53 54.92-42.48a149.38 149.38 0 0 0 15.44-35.05 3.41 3.41 0 1 0-6.59-1.76c-.17.64-17.62 64.1-65 72.58a3.22 3.22 0 0 0-.46.18c-2.46-21.94-7.85-40.37-12.82-57.29q-1.1-3.75-2.17-7.43c-4.79-16.58-4.91-39.32-4.3-54.2 23.37-16.82 28.65-64.43 28.86-66.46a3.41 3.41 0 1 0-6.78-.72c0 .43-4.43 39.83-21.56 57.68.25-3.56.47-5.7.48-5.8a3.41 3.41 0 1 0-6.78-.71c-.19 1.79-4.53 44.2 3.52 72.09q1.07 3.7 2.18 7.47c7.34 25 15.65 53.27 13.61 91.37-.69 12.85-1.32 27.49-2 42.38-1.49 34.35-3 69.86-5.39 88-5.11 39.2-9.33 77.25-5.58 90.1 3.83 13.12 2.59 48.56-1.17 63.61-1.31 5.22-4.93 18.21-9.18 33.23-2.72-3.75-12-15.1-27.55-19.54a1.71 1.71 0 0 0-2.08 1.07l-12.41 34.86a1.69 1.69 0 0 0-1.14-.53c-.84 0-20.45-.93-21.41 12.53-.43 6 3.08 13.71 9.78 20.65a1.7 1.7 0 0 0-2 1.21l-5.23 19.18a1.7 1.7 0 0 0 1.21 2.09 1.68 1.68 0 0 0 .44.06 1.71 1.71 0 0 0 1.65-1.27l5.12-19.19a1.66 1.66 0 0 0 0-.91c7.93 7.67 19.82 14.14 34.72 15.94l-.8 2.77a3.415 3.415 0 1 0 6.56 1.9c.49-1.69 6.23-21.53 12.52-43.51 1.46.32 3.65.54 7.35.9 12.46 1.21 38.4 3.71 48.41 16 13.44 16.46 18.56 27.06 18.61 27.17a3.41 3.41 0 0 0 6.16-2.93c-.21-.46-5.45-11.38-19.49-28.56-.17-.21-.37-.39-.54-.59a3.37 3.37 0 0 0 1.1-1.46c17.2-46 16.92-100.08 16.82-120.44v-6.84c.42-10.46 5.9-73 6-73.61a3.4 3.4 0 0 0-1.87-3.34c2.21-6.3 4.43-12.53 6.56-18.51 6.55-18.38 12.73-35.75 16.09-47.45 9.83-34.2 9.12-114.43 9.09-117.82a3.37 3.37 0 0 0-1.73-2.87c2.1-8.72 4.1-17.35 5.92-25.8 16.83-78.22-5.9-163.27-7.66-169.76zM50.26 944.79c1.2 18-4.78 28.5-8 32.75-.45-2.48-.84-4.8-1.13-6.9-1.6-11.41.88-29.29 4.42-47.08 5.36 9.5 4.72 20.87 4.71 21.23zm-27.2-138.06c2.72 4.65 5.79 11.15 6.3 17.41-3.76-3.35-6.37-7.35-6.29-17.44zm318.06-366.54a1.71 1.71 0 0 0-1.9.56c-1.52 2-5.3 4.12-9 5.88a210.27 210.27 0 0 0 14.59-20.74 1.69 1.69 0 0 0 .18-.49 15.63 15.63 0 0 0 4.36 1.16 3.4 3.4 0 0 0 .32.57 191.8 191.8 0 0 1 17.16 25.79l-5.77 3-6-3.09a1.7 1.7 0 0 0-.78-.19h-4.73l-.83-5.12a1.7 1.7 0 0 0-1.51-1.42l-4.89-.49v-3.82a1.71 1.71 0 0 0-1.2-1.6zm7.9-22.95c0 2.48-.06 4.44-.08 5.78a12 12 0 0 1-8.38-6.14q4.19.03 8.46.36zM23.91 272.03a9.1 9.1 0 0 1 .27-1.39c2.06 1 7.75 4.81 17.53 17.53-6.29-4-12.93-8.6-16.5-12.44a4.71 4.71 0 0 1-1.3-3.7zm29 45c-3 7.8-10.8 15.06-22.73 21.18a15.33 15.33 0 0 0-3.62-7.59 9.14 9.14 0 0 1-1.79-3.23c3.33-.35 15.09-2.75 29.44-18.83a19.39 19.39 0 0 1-1.3 8.47zm-6.6-10c-11 11.16-19.47 13.18-21.85 13.53 1.09-7.86 13.08-11.55 21.84-13.54zm163.54 172.22c-11.75 2.35-28.68 13.59-33.58 17-3-5.14-4.6-21-4.9-30.67a1.71 1.71 0 0 0-3.06-1c-3.9 5-7 11.91-9.22 18.13-.55-42.3 7.42-65.08 7.53-65.39a3.41 3.41 0 0 0-6.41-2.33c-.47 1.29-8.27 23.46-8 64.83-10.73-48.54-30.27-59.92-33.13-61.34 12.43-2.94 23.54-6.67 31.34-11.35 27.64-16.58 45.24-39.08 46.28-51.25.38-4.47.43-20.62.49-39.32.06-22.06.14-49.51.91-54.56a3.41 3.41 0 1 0-6.74-1c-.84 5.55-.92 31-1 55.56-.05 17.78-.1 34.57-.46 38.76-.77 8.92-16.13 29.86-43 46-27.5 16.5-102.15 20.67-118.77 20.27-12.93-.33-19.51-20.6-21.21-37.86-1.2-12.21 13.91-29.66 19.54-34.63a11.48 11.48 0 0 0 2.07-2.5c16.33-7.39 26.7-16.49 30.76-27.08 3.76-9.84.5-17.28.36-17.59a3.32 3.32 0 0 0-1.19-1.35 3.61 3.61 0 0 0-1-1.89c-16.07-24.48-25.8-31.94-30.39-34.18.76-1.12 1.59-2.2 2.44-3.23a3.22 3.22 0 0 0 .41.28c.18.08 18.41 8.18 34 43.16a3.42 3.42 0 0 0 3.82 1.95l76.47-16.2a3.41 3.41 0 0 0 2.13-1.44c.31-.46 31.22-46.48 42.51-57.77a3.41 3.41 0 0 0-4.82-4.82c-10.86 10.86-37.57 50.22-42.58 57.64l-72.44 15.29c-13.91-29.86-29.51-40.42-34.7-43.27.29-.27.6-.56.84-.76a3.41 3.41 0 0 0-.62-5.59c-.14-.07-14.15-7.61-22.23-15.69-4.88-4.88 5.46-18.47 11-25.77 1.58-2.07 3-3.89 3.91-5.32 5-7.55 23.22-28.68 29.08-35 5.46-5.85 4.86-12.05 4.28-18-.19-1.95-.38-4-.38-6a18.8 18.8 0 0 1 .2-2.37 23.3 23.3 0 0 0 13.69 12.37 3.24 3.24 0 0 0-.24.81c0 .44-.87 10.92 0 16.79a3.41 3.41 0 0 0 3.37 2.89 3.52 3.52 0 0 0 .52 0 3.41 3.41 0 0 0 2.85-3.89c0-.23-.06-.47-.09-.71a3.33 3.33 0 0 0 .93.47c.13 0 13 3.6 22.64 8.3a3.412 3.412 0 1 0 3-6.13c-10.19-5-23.28-8.6-23.84-8.75a3.34 3.34 0 0 0-3 .67c0-3.09.17-6.17.28-7.81 10.75 4.76 27 13.51 32.49 17.3a3.41 3.41 0 0 0 4.37-5.2c-2.31-2.35-22.75-23.09-29.83-26.85-6.69-3.55-18.41-3.81-21.31-3.81a3.4 3.4 0 0 0-4.27-2.18c-.1 0-.16.1-.26.14 2-6.05 5.73-12.47 9.63-15.85 6.6-5.72 17.93-20.9 18.5-21.68 18-26.74 45.53-46.79 50.69-50.41 75 .33 134.63 11.62 176 23.06-29-5.62-64-11.21-93.27-12.4a3.45 3.45 0 0 0-2.8 1.27c-.86 1.07-21.13 26.29-28.82 38.25a3.412 3.412 0 1 0 5.74 3.69c6.5-10.11 23-30.84 27.32-36.31 61.54 2.85 147.63 24.76 148.5 25a3.38 3.38 0 0 0 4.06-2.33 3.46 3.46 0 0 0-2.19-4.23c-.27-.09-.87-.35-1.8-.74-29.66-12.53-111.82-41.7-233.77-42.06a3.42 3.42 0 0 0-1.91.58c-.16.1-.76.51-1.67 1.16.62-8.4 8.05-18.47 21-28 14.42-10.64 28.41-8.43 41.92-6.29 2.14.34 4.25.67 6.34 1 17.87 2.42 130.69 24.46 150.58 35.83 19.59 11.2 32.5 43.59 32.63 43.92a3.41 3.41 0 0 0 1 1.37c.24.2 24 20.35 24.79 44.69.12 3.68.36 7.89.62 12.49 1.58 27.85 4 69.95-14.14 97.71-21.77 33.41-46.45 71.28-48.71 89.4-1.56 12.48-2.43 53.27-2.8 75.42-38.2-2.78-71.71 11.88-99 31.8 19.38-30.28 60.57-91.55 61.07-92.29a3.41 3.41 0 0 0-5.66-3.81c-2.45 3.64-60.11 89.41-69.89 106.52a3.33 3.33 0 0 0-.41 1.47 279.36 279.36 0 0 0-25.39 25.01zM76.43 147.52a16.61 16.61 0 0 1-4.81-2.52c4.33.33 9.62 1.12 12.79 2.8 1.85 1 5.29 3.81 9.31 7.42a153.87 153.87 0 0 0-17.29-7.7zm250.48 287.77a1.71 1.71 0 0 0 .29-.95v-16.73q4.77-.5 9.66-.62a17.09 17.09 0 0 0 5.37 6.82 1.61 1.61 0 0 0-.27.3c-.12.19-12.1 19.63-19.69 26a1.71 1.71 0 0 0 1.68 2.91c1.16-.42 9.69-3.57 15-7.36v1.5a1.7 1.7 0 0 0 1.54 1.7l5.13.51.86 5.26a1.7 1.7 0 0 0 1.68 1.43h5.77l6.46 3.3a1.7 1.7 0 0 0 .78.19 1.72 1.72 0 0 0 .78-.19l6.58-3.37a101.12 101.12 0 0 1 4.52 10.05q-3.88-1.7-7.91-3.13c-20.15-7.15-42-9.43-49.84-10zm-14.06 20.79c1.68.11 5.93.44 11.72 1.18-9.33 9.29-24.59 17.89-36.15 23.6a318.82 318.82 0 0 0 24.4-24.79zm0 23.22c5.48-6.32 12.69-15.12 16.25-21.42 2.1.31 4.33.66 6.66 1.07-4.18 4.31-13.7 13.84-22.97 20.34zm20 3.65c2.25-5.63 6-15.51 7.61-23.12 2.88.57 5.87 1.23 8.9 2-2 4.27-7.68 15.31-16.55 21.11zm21.44-2.44c.81-4.22 1.62-11.16 0-17.41 2.78.77 5.56 1.62 8.31 2.56a20.71 20.71 0 0 1-8.35 14.84zm14.35-2a35.72 35.72 0 0 0-1.45-11.22q2.87 1.11 5.64 2.36c.25.93.63 3.91-4.24 8.86zm-36.53 695.68c16.07 5.26 24.85 18.72 24.94 18.86a1.66 1.66 0 0 0 1 .7c-3.67 12.92-7.68 26.92-11.05 38.65-20.89-5.08-27.06-19-27.12-19.18a1.69 1.69 0 0 0-1.35-1zm-14.87 41.48c2 3.68 9.51 15.27 28.77 20l-1.6 5.56c-16.48-1.89-27.39-15.08-29.79-18.25zm-19.46 3c.72-10.12 17.65-9.38 17.82-9.36a1.56 1.56 0 0 0 .3 0l-4.8 13.4a1.7 1.7 0 0 0 .19 1.53c.52.77 12.29 17.82 32.15 20.35l-2.41 8.34c-28.19-3.14-44.04-23.74-43.29-34.24z"/>
  <path class="d" d="M285.8 563.48a3.41 3.41 0 0 0-1.43 6.67c.41.09 40.83 9.07 51.48 42.62a3.41 3.41 0 1 0 6.5-2.07c-11.83-37.28-54.73-46.83-56.55-47.22zM65.05 967.36a20.68 20.68 0 0 0 1.73-1.19c.48 10.9 3.1 40 17.28 41.86h.22a1.71 1.71 0 0 0 .21-3.4c-11.28-1.45-14.18-29.94-14.39-41.57 3-3.4 6.09-8.8 6.88-17.13s-5.46-15.9-11.64-21.15a1.7 1.7 0 0 0-.33-.29 69.82 69.82 0 0 0-10.81-7.43 1.71 1.71 0 1 0-1.61 3s.82.44 2 1.18l-1.24 67.47-1.91-.76a1.71 1.71 0 0 0-1.26 3.17l16.49 6.54a1.71 1.71 0 0 0 1.26-3.17l-3.74-1.48.59-25.61a1.66 1.66 0 0 0 .27-.04zm8.53-21.74c-1 10.06-5.53 15.22-8.68 17.67l.77-33.61c4.58 4.45 8.48 10.05 7.91 15.94zm-16.91 44.42a1.65 1.65 0 0 0 .1-.45l1.22-66.14c1.34.93 2.83 2 4.34 3.27l-1.5 65zM292.54 1209.37c-.1-.05-10.19-5.2-11.83-14.77.5-7.81 10.38-15.91 11.89-17.11a9.18 9.18 0 0 0 5.22-2.18c2-1.89 2.86-4.87 2.48-9.12-.79-8.91-10.19-10.64-14.84-10.29-.18 0-4.9-.21-7.8 2.85a8.63 8.63 0 0 0-2.08 7.13 19.81 19.81 0 0 0 2 7.58 1.71 1.71 0 0 0-.49-.07l-15 .8c-.49-4.51-.58-13.25 3.47-15a1.71 1.71 0 0 0-1.37-3.13c-4.11 1.8-5.42 6.82-5.71 11.43a1.69 1.69 0 0 0-.7 0 4.31 4.31 0 0 1-3-1c-1.64-1.29-2.78-3.75-3.34-7.17.61.09 6.06.8 8.85-1.79a5.12 5.12 0 0 0 1.59-4.26c-.18-2.66-.61-5.32-2.48-6.76s-4-1.13-6-.77c-6.23 1.16-6.28 5.33-5.62 12.08.53 5.48 2.21 9.33 5 11.44a7.83 7.83 0 0 0 4.74 1.65 5.22 5.22 0 0 0 .86-.06h.08a43.37 43.37 0 0 0 .5 5.49 1.71 1.71 0 0 0 1.68 1.43h.09l5.17-.28 1.16 10.76-11.59 1.87a1.71 1.71 0 0 0-1.43 1.68v7.39h-3.62v-4.41a1.71 1.71 0 0 0-3.41 0v6.01a1.7 1.7 0 0 0 1.71 1.71h14.07a1.71 1.71 0 0 0 0-3.41h-5.33v-5.94l11.21-1.81 8.83 4.5c2.26 10.8 13.05 16.34 13.52 16.58a1.71 1.71 0 1 0 1.52-3.05zm-38.5-60.34c1.69-.32 2.77-.28 3.27.11s1 1.89 1.17 4.3a1.69 1.69 0 0 1-.5 1.52c-1.21 1.12-4.34 1.16-6 .92h-.24a1.7 1.7 0 0 0-.63.12c-.53-6.04.32-6.49 2.92-6.97zm26.08 12.06c1.8-1.9 5.1-1.8 5.37-1.8.46 0 10.71-.61 11.41 7.19.28 3.13-.18 5.19-1.4 6.31-1.86 1.71-6 1.91-13.5.63-.36-.2-2.4-1.58-3-7.9a5.42 5.42 0 0 1 1.11-4.43zm-2.81 15.68a1.69 1.69 0 0 0 1.58-1.57 5 5 0 0 0 2.24 1.52h.12c2.29.4 4.29.65 6.08.78-3.41 3.2-8.32 8.65-9.69 14.55l-7.11-3.62-1.21-11.27z"/>
  <path class="d" d="M250.4 1213.97a1.71 1.71 0 0 0-1.7-1.79h-24.93c7.18-5.05 19.51-15.49 18.52-27-1.37-16-18.62-22.47-25.58-22.47-6.55 0-15 2.31-15.38 2.41a1.71 1.71 0 0 0-1.2 1.21c-.46 1.76-4.32 17.4.7 24.25 3.19 4.35 2.64 14.16 2 18.84-8.44 1.67-12.92 7.09-16.22 11.1-2 2.48-3.67 4.44-5.28 4.44-3.75 0-7.77-3.08-9.71-4.78q.63-9.1 1.6-17.73a1.63 1.63 0 0 0 .65 0c3.47-1.12 5.89-1.12 6.83 0 2 2.41-.76 10.43-3.38 15.35a1.71 1.71 0 0 0 2.84 1.87c9.59-12 13-28.72 9.52-35.12a5.43 5.43 0 0 0-5.55-3c-4.43.44-7.37 4.27-9.29 8.38q.88-6.14 1.9-12c35.26-14.61 35.27-28.7 35.27-36.51a7.26 7.26 0 0 0-2.19-5.34c-2-2-5.06-2.87-7.38-3.24l9.22-12.13a1.71 1.71 0 0 0-1.36-2.74h-10.33c2.93-7.17 10-19.09 10.11-19.22a1.7 1.7 0 0 0-2.24-2.39 40.78 40.78 0 0 0-7.82 5.17c.12-.2.25-.42.37-.6 8.07-12.42 12.7-41.66 6.33-52.49-4.45-7.56-12.73-40.51-15.54-52.55-.37-1.65-37.59-165.07-42.09-182.81a221.61 221.61 0 0 0-6.4-21.73c8 4.48 34.7 20.44 46.2 40.09a3.41 3.41 0 1 0 5.89-3.44c-14.55-24.86-49.79-43.2-51.28-44a3.4 3.4 0 0 0-3.64.35c-6-13.33-15-24.45-29.15-22.89-23.88 2.67-36.58 44.21-36.58 49a3.33 3.33 0 0 0 3.26 3.31 3.48 3.48 0 0 0 3.56-3.19c.43-4.56 12.29-40.33 30.52-42.36 18.77-2 26.69 29.52 31 46.49 4.48 17.67 41.68 181 42.06 182.67s10.42 44.47 16.3 54.47c4.65 7.9 1.08 34.16-6.17 45.31-8.62 13.26-32.91 78.82-30.69 161.73a3.41 3.41 0 0 0 3.41 3.32h.09a3.32 3.32 0 0 0 1.73-.6 1.6 1.6 0 0 0 .17 0h69.26a1.71 1.71 0 0 0 1.71-1.74c-.16-8.44-6.82-12.72-13-14.58 21.66-9.32 23.05-31.09 23.06-31.32zM283.7 942.79a3.41 3.41 0 0 0 3.35 5.94c44.66-25.2 67.3-64.59 68.24-66.25a3.412 3.412 0 0 0-5.94-3.36c-.21.41-22.7 39.47-65.65 63.67z"/>
  <path class="d" d="M223.11 1157.37a3.42 3.42 0 0 0 3.12-2c10.67-24 51.53-61.82 51.94-62.2a3.41 3.41 0 1 0-4.62-5c-1.72 1.59-42.3 39.15-53.55 64.45a3.41 3.41 0 0 0 1.73 4.5 3.37 3.37 0 0 0 1.38.25z"/>
</svg>
