<svg xmlns="http://www.w3.org/2000/svg" viewBox="0 0 555.6 1262.4">
  <defs>
    <style>
      .a{fill:none;}.b{fill:#f05662;}.c{fill:url(#a);}.d{fill:red;}
    </style>
    <pattern id="a" width="72" height="72" patternTransform="translate(-139.54 -66.56)" patternUnits="userSpaceOnUse" viewBox="0 0 72 72">
      <path class="a" d="M0 0h72v72H0z"/>
      <path class="b" d="M21 3.1a.39.39 0 0 1-.25-.1.36.36 0 0 1 0-.5.36.36 0 0 1 .6.25.39.39 0 0 1-.1.25.39.39 0 0 1-.25.1zM20 8.35a.39.39 0 0 1-.25-.1.4.4 0 0 1-.1-.25.33.33 0 0 1 .11-.25.36.36 0 0 1 .49 0 .35.35 0 0 1 .1.25.39.39 0 0 1-.1.25.37.37 0 0 1-.25.1zM20.25 10.6a.39.39 0 0 1-.25-.1.36.36 0 0 1 0-.5.37.37 0 0 1 .5 0 .36.36 0 0 1 0 .5.39.39 0 0 1-.25.1zM15.25 10.6a.39.39 0 0 1-.25-.1.4.4 0 0 1-.1-.25.35.35 0 0 1 .6-.25.36.36 0 0 1 0 .5.39.39 0 0 1-.25.1zM22.75 20.1a.39.39 0 0 1-.25-.1.36.36 0 0 1 0-.5.36.36 0 0 1 .6.25.39.39 0 0 1-.1.25.39.39 0 0 1-.25.1zM15.25 23.1A.39.39 0 0 1 15 23a.4.4 0 0 1-.1-.25.33.33 0 0 1 .1-.25.36.36 0 0 1 .49 0 .35.35 0 0 1 .1.25.39.39 0 0 1-.1.25.39.39 0 0 1-.24.1zM14 24.1a.39.39 0 0 1-.25-.1.36.36 0 0 1 0-.5.36.36 0 0 1 .6.25.39.39 0 0 1-.1.25.37.37 0 0 1-.25.1zM24 27.1a.39.39 0 0 1-.25-.1.4.4 0 0 1-.1-.25.33.33 0 0 1 .11-.25.36.36 0 0 1 .49 0 .39.39 0 0 1 .1.25.35.35 0 0 1-.1.24.35.35 0 0 1-.25.11zM30.75 25.85a.39.39 0 0 1-.25-.1.36.36 0 0 1 0-.5.36.36 0 0 1 .6.25.39.39 0 0 1-.1.25.39.39 0 0 1-.25.1zM31.25 23.35a.39.39 0 0 1-.25-.1.4.4 0 0 1-.1-.25.33.33 0 0 1 .1-.25.35.35 0 0 1 .59.25.39.39 0 0 1-.1.25.37.37 0 0 1-.24.1zM29.25 18.35a.39.39 0 0 1-.25-.1.36.36 0 0 1 0-.5.36.36 0 0 1 .6.25.39.39 0 0 1-.1.25.39.39 0 0 1-.25.1zM34 19.85a.39.39 0 0 1-.25-.1.36.36 0 0 1 0-.5.36.36 0 0 1 .6.25.39.39 0 0 1-.1.25.39.39 0 0 1-.25.1zM31.5 14.85a.39.39 0 0 1-.25-.1.36.36 0 0 1 0-.5.36.36 0 0 1 .6.25.39.39 0 0 1-.1.25.39.39 0 0 1-.25.1zM31.75 11.85a.39.39 0 0 1-.25-.1.36.36 0 0 1 0-.5.37.37 0 0 1 .5 0 .36.36 0 0 1 0 .5.39.39 0 0 1-.25.1zM32.25 7.1A.39.39 0 0 1 32 7a.36.36 0 0 1 0-.5.36.36 0 0 1 .6.25.39.39 0 0 1-.1.25.39.39 0 0 1-.25.1zM32 3.1a.39.39 0 0 1-.25-.1.4.4 0 0 1-.1-.25.33.33 0 0 1 .11-.25.35.35 0 0 1 .59.25.39.39 0 0 1-.1.25.39.39 0 0 1-.25.1zM34 1.35a.36.36 0 0 1-.25-.11.33.33 0 0 1-.1-.24.33.33 0 0 1 .11-.25.35.35 0 0 1 .59.25.34.34 0 0 1-.11.25.34.34 0 0 1-.24.1zM41.5 7.1a.39.39 0 0 1-.25-.1.35.35 0 0 1-.1-.25.4.4 0 0 1 .1-.25.35.35 0 0 1 .49 0 .36.36 0 0 1 .11.25.39.39 0 0 1-.1.25.39.39 0 0 1-.25.1zM45.5 6.85a.39.39 0 0 1-.25-.1.36.36 0 0 1 0-.5.36.36 0 0 1 .6.25.39.39 0 0 1-.1.25.39.39 0 0 1-.25.1zM42.5 13.6a.39.39 0 0 1-.25-.1.4.4 0 0 1-.1-.25.33.33 0 0 1 .11-.25.35.35 0 0 1 .59.25.39.39 0 0 1-.1.25.39.39 0 0 1-.25.1zM47 14.35a.39.39 0 0 1-.25-.1.4.4 0 0 1-.1-.25.33.33 0 0 1 .11-.25.35.35 0 0 1 .49 0 .39.39 0 0 1 .1.25.33.33 0 0 1-.1.24.35.35 0 0 1-.25.11zM47 16.35a.39.39 0 0 1-.25-.1.4.4 0 0 1-.1-.25.33.33 0 0 1 .11-.25.35.35 0 0 1 .49 0 .39.39 0 0 1 .1.25.37.37 0 0 1-.1.24.35.35 0 0 1-.25.11zM39 20.85a.39.39 0 0 1-.25-.1.36.36 0 0 1 0-.5.35.35 0 0 1 .49 0 .34.34 0 0 1 .11.25.39.39 0 0 1-.1.25.39.39 0 0 1-.25.1zM50.25 13.6a.39.39 0 0 1-.25-.1.36.36 0 0 1 0-.5.37.37 0 0 1 .5 0 .36.36 0 0 1 0 .5.39.39 0 0 1-.25.1zM52.25 12.1A.36.36 0 0 1 52 12a.35.35 0 0 1-.1-.24.33.33 0 0 1 .1-.26.36.36 0 0 1 .49 0 .35.35 0 0 1 .1.25.39.39 0 0 1-.1.25.39.39 0 0 1-.24.1zM54.75 11.1a.36.36 0 0 1-.25-.1.35.35 0 0 1-.1-.24.33.33 0 0 1 .11-.25.35.35 0 0 1 .59.25.39.39 0 0 1-.1.24.39.39 0 0 1-.25.1zM56.5.85a.39.39 0 0 1-.25-.1.4.4 0 0 1-.1-.25.4.4 0 0 1 .1-.25.36.36 0 0 1 .5 0 .35.35 0 0 1 .1.24.39.39 0 0 1-.1.25.39.39 0 0 1-.25.11zM68 3.1a.39.39 0 0 1-.25-.1.4.4 0 0 1-.1-.25.33.33 0 0 1 .11-.25.36.36 0 0 1 .49 0 .35.35 0 0 1 .1.25.39.39 0 0 1-.1.25.37.37 0 0 1-.25.1zM68 10.35a.36.36 0 0 1-.25-.11.35.35 0 0 1-.1-.24.4.4 0 0 1 .1-.25.37.37 0 0 1 .5 0 .39.39 0 0 1 .1.25.34.34 0 0 1-.11.25.34.34 0 0 1-.24.1zM64.25 12.35a.39.39 0 0 1-.25-.1.36.36 0 0 1 0-.5.36.36 0 0 1 .6.25.39.39 0 0 1-.1.25.39.39 0 0 1-.25.1zM65.25 15.85a.39.39 0 0 1-.25-.1.4.4 0 0 1-.1-.25.35.35 0 0 1 .6-.25.36.36 0 0 1 0 .5.39.39 0 0 1-.25.1zM64 19.85a.36.36 0 0 1-.25-.11.35.35 0 0 1-.1-.24.4.4 0 0 1 .1-.25.37.37 0 0 1 .5 0 .39.39 0 0 1 .1.25.34.34 0 0 1-.11.25.34.34 0 0 1-.24.1zM66.25 19.85a.39.39 0 0 1-.25-.1.4.4 0 0 1-.1-.25.33.33 0 0 1 .1-.25.36.36 0 0 1 .49 0 .35.35 0 0 1 .1.25.39.39 0 0 1-.1.25.39.39 0 0 1-.24.1zM68 21.35a.39.39 0 0 1-.25-.1.36.36 0 0 1 0-.5.37.37 0 0 1 .5 0 .36.36 0 0 1 0 .5.39.39 0 0 1-.25.1zM7 52.35a.39.39 0 0 1-.25-.1.36.36 0 0 1 0-.5.38.38 0 0 1 .5 0 .36.36 0 0 1 0 .5.39.39 0 0 1-.25.1zM7.25 54.6a.39.39 0 0 1-.25-.1.36.36 0 0 1 0-.5.37.37 0 0 1 .5 0 .36.36 0 0 1 0 .5.39.39 0 0 1-.25.1zM2.25 54.6a.39.39 0 0 1-.25-.1.36.36 0 0 1 0-.5.38.38 0 0 1 .5 0 .36.36 0 0 1 0 .5.39.39 0 0 1-.25.1zM9.75 64.1a.39.39 0 0 1-.25-.1.36.36 0 0 1 0-.5.36.36 0 0 1 .6.25.39.39 0 0 1-.1.25.39.39 0 0 1-.25.1zM1 68.1a.39.39 0 0 1-.25-.1.36.36 0 0 1 0-.5.38.38 0 0 1 .5 0 .36.36 0 0 1 0 .5.39.39 0 0 1-.25.1zM11 71.1a.39.39 0 0 1-.25-.1.36.36 0 0 1 0-.5.38.38 0 0 1 .5 0 .36.36 0 0 1 0 .5.39.39 0 0 1-.25.1zM18.25 67.35a.39.39 0 0 1-.25-.1.4.4 0 0 1-.1-.25.38.38 0 0 1 .1-.25.37.37 0 0 1 .49 0 .36.36 0 0 1 .11.25.39.39 0 0 1-.1.25.39.39 0 0 1-.25.1zM16.25 62.35a.39.39 0 0 1-.25-.1.36.36 0 0 1 0-.5.37.37 0 0 1 .5 0 .36.36 0 0 1 0 .5.39.39 0 0 1-.25.1zM19.5 57.85a.39.39 0 0 1-.25-.1.4.4 0 0 1-.1-.25.33.33 0 0 1 .11-.25.36.36 0 0 1 .49 0 .35.35 0 0 1 .1.25.39.39 0 0 1-.1.25.39.39 0 0 1-.25.1zM18.75 55.85a.39.39 0 0 1-.25-.1.4.4 0 0 1-.1-.25.33.33 0 0 1 .11-.25.36.36 0 0 1 .49 0 .35.35 0 0 1 .1.25.39.39 0 0 1-.1.25.39.39 0 0 1-.25.1zM16.25 54.85a.39.39 0 0 1-.25-.1.4.4 0 0 1-.1-.25.33.33 0 0 1 .1-.25.36.36 0 0 1 .49 0 .35.35 0 0 1 .1.25.39.39 0 0 1-.1.25.39.39 0 0 1-.24.1zM19.25 51.1A.39.39 0 0 1 19 51a.4.4 0 0 1-.1-.25.33.33 0 0 1 .1-.25.36.36 0 0 1 .49 0 .35.35 0 0 1 .1.25.39.39 0 0 1-.1.25.39.39 0 0 1-.24.1zM19 47.1a.39.39 0 0 1-.25-.1.36.36 0 0 1 0-.5.38.38 0 0 1 .5 0 .36.36 0 0 1 0 .5.39.39 0 0 1-.25.1zM16.25 47.35a.39.39 0 0 1-.25-.1.36.36 0 0 1 0-.5.37.37 0 0 1 .5 0 .36.36 0 0 1 0 .5.39.39 0 0 1-.25.1zM32.5 50.85a.39.39 0 0 1-.25-.1.4.4 0 0 1-.1-.25.33.33 0 0 1 .11-.25.35.35 0 0 1 .59.25.39.39 0 0 1-.1.25.39.39 0 0 1-.25.1zM27.25 54.35a.39.39 0 0 1-.25-.1.36.36 0 0 1 0-.5.37.37 0 0 1 .5 0 .36.36 0 0 1 0 .5.39.39 0 0 1-.25.1zM32 55.85a.39.39 0 0 1-.25-.1.36.36 0 0 1 0-.5.37.37 0 0 1 .5 0 .36.36 0 0 1 0 .5.39.39 0 0 1-.25.1zM32 57.6a.34.34 0 0 1-.24-.1.35.35 0 0 1 0-.5.37.37 0 0 1 .5 0 .35.35 0 0 1 .1.25.39.39 0 0 1-.1.25.39.39 0 0 1-.26.1zM34 58.35a.39.39 0 0 1-.25-.1.36.36 0 0 1 0-.5.37.37 0 0 1 .5 0 .36.36 0 0 1 0 .5.39.39 0 0 1-.25.1zM26 64.85a.39.39 0 0 1-.25-.1.36.36 0 0 1 0-.5.36.36 0 0 1 .6.25.39.39 0 0 1-.1.25.39.39 0 0 1-.25.1zM36 56.35a.39.39 0 0 1-.25-.1.36.36 0 0 1 0-.5.36.36 0 0 1 .6.25.39.39 0 0 1-.1.25.39.39 0 0 1-.25.1zM39.25 56.1A.34.34 0 0 1 39 56a.36.36 0 0 1-.11-.25.4.4 0 0 1 .11-.25.37.37 0 0 1 .5 0 .36.36 0 0 1 0 .5.39.39 0 0 1-.25.1zM41.75 50.85a.39.39 0 0 1-.25-.1.36.36 0 0 1 0-.5.37.37 0 0 1 .5 0 .36.36 0 0 1 0 .5.39.39 0 0 1-.25.1zM43.5 44.85a.36.36 0 0 1-.25-.11.35.35 0 0 1-.1-.24.4.4 0 0 1 .1-.25.37.37 0 0 1 .5 0 .36.36 0 0 1 0 .5.39.39 0 0 1-.25.1zM51 50.6a.39.39 0 0 1-.25-.1.37.37 0 0 1-.1-.25.4.4 0 0 1 .1-.25.36.36 0 0 1 .5 0 .36.36 0 0 1 0 .5.39.39 0 0 1-.25.1zM52 46.6a.36.36 0 0 1-.25-.11.35.35 0 0 1-.1-.24.33.33 0 0 1 .11-.25.36.36 0 0 1 .49 0 .35.35 0 0 1 .1.25.39.39 0 0 1-.1.25.39.39 0 0 1-.25.1zM55 47.1a.33.33 0 0 1-.25-.1.35.35 0 0 1-.1-.24.38.38 0 0 1 .1-.25.36.36 0 0 1 .49 0 .34.34 0 0 1 .11.25.39.39 0 0 1-.1.25.39.39 0 0 1-.25.09zM55 54.35a.33.33 0 0 1-.25-.11.35.35 0 0 1-.1-.24.33.33 0 0 1 .11-.25.36.36 0 0 1 .49 0 .35.35 0 0 1 .1.25.39.39 0 0 1-.1.25.39.39 0 0 1-.25.1zM51.25 56.35a.39.39 0 0 1-.25-.1.36.36 0 0 1 0-.5.37.37 0 0 1 .5 0 .35.35 0 0 1 .1.25.39.39 0 0 1-.1.25.37.37 0 0 1-.25.1zM51 63.85a.39.39 0 0 1-.25-.1.4.4 0 0 1-.1-.25.31.31 0 0 1 .1-.24.34.34 0 0 1 .49 0 .36.36 0 0 1 .11.25.39.39 0 0 1-.1.25.37.37 0 0 1-.25.09zM53.25 63.85a.39.39 0 0 1-.25-.1.4.4 0 0 1-.1-.25.33.33 0 0 1 .1-.25.36.36 0 0 1 .49 0 .32.32 0 0 1 .1.24.39.39 0 0 1-.1.25.39.39 0 0 1-.24.11zM56 63.1a.39.39 0 0 1-.25-.1.36.36 0 0 1 0-.5.36.36 0 0 1 .6.25.39.39 0 0 1-.1.25.39.39 0 0 1-.25.1zM58.25 61.6a.36.36 0 0 1-.25-.11.35.35 0 0 1-.1-.24.4.4 0 0 1 .1-.25.37.37 0 0 1 .5 0 .37.37 0 0 1 .1.25.39.39 0 0 1-.1.25.39.39 0 0 1-.25.1zM21 27.1a.39.39 0 0 1-.25-.1.36.36 0 0 1 0-.5.36.36 0 0 1 .6.25.39.39 0 0 1-.1.25.39.39 0 0 1-.25.1zM22.75 24.1a.39.39 0 0 1-.25-.1.36.36 0 0 1 0-.5.37.37 0 0 1 .5 0 .36.36 0 0 1 0 .5.39.39 0 0 1-.25.1zM39 24.85a.39.39 0 0 1-.25-.1.36.36 0 0 1 0-.5.37.37 0 0 1 .5 0 .36.36 0 0 1 0 .5.39.39 0 0 1-.25.1zM46.25 29.1A.39.39 0 0 1 46 29a.35.35 0 0 1 0-.49.34.34 0 0 1 .49 0 .36.36 0 0 1 .11.25.39.39 0 0 1-.1.25.39.39 0 0 1-.25.09zM55.25 28.1A.39.39 0 0 1 55 28a.36.36 0 0 1 0-.5.37.37 0 0 1 .5 0 .36.36 0 0 1 0 .5.39.39 0 0 1-.25.1zM51.25 25.35a.39.39 0 0 1-.25-.1.36.36 0 0 1 0-.5.37.37 0 0 1 .5 0 .35.35 0 0 1 .1.25.39.39 0 0 1-.1.25.39.39 0 0 1-.25.1zM52 29.6a.37.37 0 0 1-.25-.1.36.36 0 0 1 0-.5.36.36 0 0 1 .6.25.39.39 0 0 1-.1.25.39.39 0 0 1-.25.1zM62.5 35.6a.39.39 0 0 1-.25-.1.4.4 0 0 1-.1-.25.33.33 0 0 1 .11-.25.36.36 0 0 1 .49 0 .32.32 0 0 1 .1.24.39.39 0 0 1-.1.25.39.39 0 0 1-.25.11zM56.75 39.1a.39.39 0 0 1-.25-.1.36.36 0 0 1 0-.5.36.36 0 0 1 .6.25.39.39 0 0 1-.1.25.39.39 0 0 1-.25.1zM48.25 37.35a.34.34 0 0 1-.24-.1.36.36 0 0 1-.11-.25.4.4 0 0 1 .1-.25.36.36 0 0 1 .5 0 .33.33 0 0 1 .1.24.39.39 0 0 1-.1.25.39.39 0 0 1-.25.11zM48 41.35a.33.33 0 0 1-.25-.11.35.35 0 0 1-.1-.24.4.4 0 0 1 .1-.25.38.38 0 0 1 .5 0 .36.36 0 0 1 0 .5.39.39 0 0 1-.25.1zM53.5 45.1a.34.34 0 0 1-.25-.1.32.32 0 0 1-.1-.24.34.34 0 0 1 .11-.25.36.36 0 0 1 .49 0 .36.36 0 0 1 0 .5.39.39 0 0 1-.25.09zM62.25 48.1A.39.39 0 0 1 62 48a.4.4 0 0 1-.1-.25.33.33 0 0 1 .1-.25.36.36 0 0 1 .49 0 .32.32 0 0 1 .1.24.39.39 0 0 1-.1.25.39.39 0 0 1-.24.11zM65 51.85a.39.39 0 0 1-.25-.1.4.4 0 0 1-.1-.25.33.33 0 0 1 .11-.25.36.36 0 0 1 .49 0 .35.35 0 0 1 .1.25.39.39 0 0 1-.1.25.39.39 0 0 1-.25.1zM69.5 45.1a.39.39 0 0 1-.25-.1.36.36 0 0 1 0-.5.37.37 0 0 1 .5 0 .36.36 0 0 1 0 .5.39.39 0 0 1-.25.1zM60 39.1a.33.33 0 0 1-.25-.1.35.35 0 0 1-.1-.24.34.34 0 0 1 .11-.25.35.35 0 0 1 .49 0 .36.36 0 0 1 0 .5.37.37 0 0 1-.25.09zM32.5 47.1a.39.39 0 0 1-.25-.1.36.36 0 0 1 0-.5.36.36 0 0 1 .6.25.39.39 0 0 1-.1.25.39.39 0 0 1-.25.1zM26.25 37.85a.39.39 0 0 1-.25-.1.36.36 0 0 1 0-.5.36.36 0 0 1 .6.25.39.39 0 0 1-.1.25.39.39 0 0 1-.25.1zM29.75 35.6a.34.34 0 0 1-.24-.1.36.36 0 0 1-.11-.25.33.33 0 0 1 .11-.25.36.36 0 0 1 .49 0 .35.35 0 0 1 .1.25.39.39 0 0 1-.1.25.39.39 0 0 1-.25.1zM10.5 29.6a.39.39 0 0 1-.25-.1.36.36 0 0 1 0-.5.37.37 0 0 1 .49 0 .33.33 0 0 1 .11.25.39.39 0 0 1-.1.25.39.39 0 0 1-.25.1zM6 31.6a.39.39 0 0 1-.25-.1.36.36 0 0 1 0-.5.36.36 0 0 1 .49 0 .33.33 0 0 1 .11.25.37.37 0 0 1-.1.25.39.39 0 0 1-.25.1zM2.5 35.35a.39.39 0 0 1-.25-.1.36.36 0 0 1 0-.5.37.37 0 0 1 .5 0 .35.35 0 0 1 .1.25.33.33 0 0 1-.1.24.35.35 0 0 1-.25.11zM17 42.1a.39.39 0 0 1-.25-.1.4.4 0 0 1-.1-.25.33.33 0 0 1 .11-.25.35.35 0 0 1 .59.25.39.39 0 0 1-.1.25.37.37 0 0 1-.25.1zM12.75 36.1a.39.39 0 0 1-.25-.1.4.4 0 0 1-.1-.25.33.33 0 0 1 .11-.25.36.36 0 0 1 .49 0 .35.35 0 0 1 .1.25.39.39 0 0 1-.1.25.37.37 0 0 1-.25.1zM26.5 30.35a.39.39 0 0 1-.25-.1.36.36 0 0 1 0-.5.37.37 0 0 1 .5 0 .36.36 0 0 1 0 .5.39.39 0 0 1-.25.1zM39.25 30.85a.39.39 0 0 1-.25-.1.36.36 0 0 1 0-.5.37.37 0 0 1 .5 0 .36.36 0 0 1 0 .5.37.37 0 0 1-.25.1zM38.25 32.85a.39.39 0 0 1-.25-.1.36.36 0 0 1 0-.5.37.37 0 0 1 .5 0 .36.36 0 0 1 0 .5.39.39 0 0 1-.25.1zM28 42.1a.39.39 0 0 1-.25-.1.36.36 0 0 1 0-.5.37.37 0 0 1 .5 0 .36.36 0 0 1 0 .5.39.39 0 0 1-.25.1zM6.5 20.6a.39.39 0 0 1-.25-.1.36.36 0 0 1 0-.5.37.37 0 0 1 .5 0 .36.36 0 0 1 0 .5.39.39 0 0 1-.25.1zM9.75 18.85a.39.39 0 0 1-.25-.1.36.36 0 0 1 0-.5.36.36 0 0 1 .6.25.39.39 0 0 1-.1.25.39.39 0 0 1-.25.1zM11.75 23.6a.39.39 0 0 1-.25-.1.4.4 0 0 1-.1-.25.33.33 0 0 1 .11-.25.36.36 0 0 1 .49 0 .35.35 0 0 1 .1.25.39.39 0 0 1-.1.25.37.37 0 0 1-.25.1zM3 25.85a.39.39 0 0 1-.25-.1.36.36 0 0 1 0-.5.38.38 0 0 1 .5 0 .36.36 0 0 1 0 .5.39.39 0 0 1-.25.1zM64.25 29.6a.34.34 0 0 1-.25-.1.36.36 0 0 1-.11-.25A.4.4 0 0 1 64 29a.36.36 0 0 1 .6.25.39.39 0 0 1-.1.25.39.39 0 0 1-.25.1zM69.5 29.85a.39.39 0 0 1-.25-.1.4.4 0 0 1-.1-.25.34.34 0 0 1 .11-.25.36.36 0 0 1 .49 0 .35.35 0 0 1 .1.25.39.39 0 0 1-.1.25.37.37 0 0 1-.25.1zM1.5 9.1a.39.39 0 0 1-.25-.1.36.36 0 0 1 0-.5.38.38 0 0 1 .5 0 .36.36 0 0 1 0 .5.39.39 0 0 1-.25.1zM16.5 6.1a.39.39 0 0 1-.25-.1.4.4 0 0 1-.1-.25.35.35 0 0 1 .6-.25.36.36 0 0 1 0 .5.39.39 0 0 1-.25.1zM3.75 6.1A.39.39 0 0 1 3.5 6a.36.36 0 0 1 0-.5.36.36 0 0 1 .6.25A.39.39 0 0 1 4 6a.39.39 0 0 1-.25.1zM12.75 14.35a.39.39 0 0 1-.25-.1.36.36 0 0 1 0-.5.36.36 0 0 1 .6.25.39.39 0 0 1-.1.25.39.39 0 0 1-.25.1zM18.5 19.35a.39.39 0 0 1-.25-.1.4.4 0 0 1-.1-.25.38.38 0 0 1 .1-.25.36.36 0 0 1 .6.25.39.39 0 0 1-.1.25.39.39 0 0 1-.25.1zM21.25 37.1A.39.39 0 0 1 21 37a.4.4 0 0 1-.1-.25.38.38 0 0 1 .1-.25.37.37 0 0 1 .49 0 .36.36 0 0 1 .11.25.39.39 0 0 1-.1.25.39.39 0 0 1-.25.1zM.75 44.35a.39.39 0 0 1-.25-.1.4.4 0 0 1-.1-.25.33.33 0 0 1 .11-.25.36.36 0 0 1 .49 0 .35.35 0 0 1 .1.25.39.39 0 0 1-.1.25.39.39 0 0 1-.25.1zM68 66.1a.39.39 0 0 1-.25-.1.4.4 0 0 1-.1-.25.33.33 0 0 1 .11-.25.36.36 0 0 1 .49 0 .35.35 0 0 1 .1.25.39.39 0 0 1-.1.25.39.39 0 0 1-.25.1zM59.75 69.85a.39.39 0 0 1-.25-.1.35.35 0 0 1-.1-.25.4.4 0 0 1 .1-.25.37.37 0 0 1 .5 0 .35.35 0 0 1 .1.25.37.37 0 0 1-.1.25.39.39 0 0 1-.25.1zM40.5 68.1a.39.39 0 0 1-.25-.1.36.36 0 0 1 0-.5.37.37 0 0 1 .5 0 .36.36 0 0 1 0 .5.37.37 0 0 1-.25.1zM4.5 60.1a.39.39 0 0 1-.25-.1.36.36 0 0 1 0-.5.36.36 0 0 1 .6.25.39.39 0 0 1-.1.25.39.39 0 0 1-.25.1zM26.5 59.6a.39.39 0 0 1-.25-.1.36.36 0 0 1 0-.5.36.36 0 0 1 .6.25.39.39 0 0 1-.1.25.39.39 0 0 1-.25.1zM37.25 48.6a.39.39 0 0 1-.25-.1.4.4 0 0 1-.1-.25.38.38 0 0 1 .1-.25.37.37 0 0 1 .5 0 .36.36 0 0 1 0 .5.37.37 0 0 1-.25.1zM8.75 40.35a.39.39 0 0 1-.25-.1.36.36 0 0 1 0-.5.36.36 0 0 1 .6.25.39.39 0 0 1-.1.25.39.39 0 0 1-.25.1zM52.25 38.1A.36.36 0 0 1 52 38a.35.35 0 0 1-.1-.24.33.33 0 0 1 .1-.26.36.36 0 0 1 .49 0 .35.35 0 0 1 .1.25.39.39 0 0 1-.1.25.39.39 0 0 1-.24.1zM60.75 46.1a.39.39 0 0 1-.25-.1.4.4 0 0 1-.1-.25.33.33 0 0 1 .11-.25.36.36 0 0 1 .49 0 .35.35 0 0 1 .1.25.39.39 0 0 1-.1.25.39.39 0 0 1-.25.1zM51.25 66.35a.39.39 0 0 1-.25-.1.36.36 0 0 1 0-.5.37.37 0 0 1 .5 0 .39.39 0 0 1 .1.25.35.35 0 0 1-.1.25.39.39 0 0 1-.25.1zM40 37.85a.39.39 0 0 1-.25-.1.36.36 0 0 1 0-.5.36.36 0 0 1 .6.25.39.39 0 0 1-.1.25.39.39 0 0 1-.25.1zM27.5 13.6a.39.39 0 0 1-.25-.1.36.36 0 0 1 0-.5.36.36 0 0 1 .6.25.39.39 0 0 1-.1.25.39.39 0 0 1-.25.1zM19.75 26.6a.39.39 0 0 1-.25-.1.4.4 0 0 1-.1-.25.38.38 0 0 1 .1-.25.37.37 0 0 1 .5 0 .36.36 0 0 1 .11.25.39.39 0 0 1-.1.25.39.39 0 0 1-.26.1zM11.75 1.85a.39.39 0 0 1-.25-.1.4.4 0 0 1-.1-.25.4.4 0 0 1 .1-.25.38.38 0 0 1 .5 0 .39.39 0 0 1 .1.25.39.39 0 0 1-.1.25.39.39 0 0 1-.25.1zM55.25 3.85a.39.39 0 0 1-.25-.1.4.4 0 0 1-.1-.25.33.33 0 0 1 .1-.25.36.36 0 0 1 .49 0 .35.35 0 0 1 .1.25.39.39 0 0 1-.1.25.39.39 0 0 1-.24.1zM47.25 69.85a.39.39 0 0 1-.25-.1.38.38 0 0 1-.1-.25.4.4 0 0 1 .1-.25.36.36 0 0 1 .6.25.39.39 0 0 1-.1.25.39.39 0 0 1-.25.1zM4.75 40.35a.39.39 0 0 1-.25-.1.4.4 0 0 1-.1-.25.33.33 0 0 1 .11-.25.36.36 0 0 1 .49 0 .35.35 0 0 1 .1.25.39.39 0 0 1-.1.25.39.39 0 0 1-.25.1zM68.75 13.35a.39.39 0 0 1-.25-.1.36.36 0 0 1 0-.5.37.37 0 0 1 .5 0 .36.36 0 0 1 0 .5.39.39 0 0 1-.25.1zM23.25 14.1A.39.39 0 0 1 23 14a.36.36 0 0 1 0-.5.36.36 0 0 1 .6.25.39.39 0 0 1-.1.25.39.39 0 0 1-.25.1zM20.5 17.35a.39.39 0 0 1-.25-.1.36.36 0 0 1 0-.5.37.37 0 0 1 .5 0 .36.36 0 0 1 0 .5.39.39 0 0 1-.25.1zM14.75 17.35a.39.39 0 0 1-.25-.1.4.4 0 0 1-.1-.25.33.33 0 0 1 .11-.25.36.36 0 0 1 .49 0 .35.35 0 0 1 .1.25.39.39 0 0 1-.1.25.39.39 0 0 1-.25.1zM6 11.85a.39.39 0 0 1-.25-.1.36.36 0 0 1 0-.5.36.36 0 0 1 .49 0 .33.33 0 0 1 .11.25.39.39 0 0 1-.1.25.39.39 0 0 1-.25.1zM7 2.85a.36.36 0 0 1-.24-.1.36.36 0 0 1-.11-.25.4.4 0 0 1 .1-.25.36.36 0 0 1 .6.25.39.39 0 0 1-.1.25.39.39 0 0 1-.25.1zM10 8.35a.39.39 0 0 1-.25-.1.36.36 0 0 1 0-.5.36.36 0 0 1 .6.25.39.39 0 0 1-.1.25.39.39 0 0 1-.25.1zM14.25 8.35a.39.39 0 0 1-.25-.1.4.4 0 0 1-.1-.25.33.33 0 0 1 .1-.25.36.36 0 0 1 .49 0 .35.35 0 0 1 .1.25.39.39 0 0 1-.1.25.39.39 0 0 1-.24.1zM25.75 7.1a.39.39 0 0 1-.25-.1.36.36 0 0 1 0-.5.36.36 0 0 1 .6.25.39.39 0 0 1-.1.25.39.39 0 0 1-.25.1zM37 7.6a.39.39 0 0 1-.25-.1.36.36 0 0 1 0-.5.37.37 0 0 1 .5 0 .36.36 0 0 1 0 .5.39.39 0 0 1-.25.1zM37.5 4.35a.39.39 0 0 1-.25-.1.4.4 0 0 1-.1-.25.33.33 0 0 1 .11-.25.35.35 0 0 1 .59.25.39.39 0 0 1-.1.25.39.39 0 0 1-.25.1zM43.25 2.35a.39.39 0 0 1-.25-.1.4.4 0 0 1-.1-.25.4.4 0 0 1 .1-.25.37.37 0 0 1 .5 0 .39.39 0 0 1 .1.25.39.39 0 0 1-.1.25.41.41 0 0 1-.25.1zM49.5 8.35a.39.39 0 0 1-.25-.1.36.36 0 0 1 0-.5.37.37 0 0 1 .5 0 .36.36 0 0 1 0 .5.39.39 0 0 1-.25.1zM46 9.35a.39.39 0 0 1-.25-.1.36.36 0 0 1 0-.5.37.37 0 0 1 .5 0 .36.36 0 0 1 0 .5.37.37 0 0 1-.25.1zM35.75 11.1a.39.39 0 0 1-.25-.1.4.4 0 0 1-.1-.25.38.38 0 0 1 .1-.25.36.36 0 0 1 .6.25.39.39 0 0 1-.1.25.39.39 0 0 1-.25.1zM39.25 15.1A.39.39 0 0 1 39 15a.36.36 0 0 1 0-.5.36.36 0 0 1 .6.25.39.39 0 0 1-.1.25.39.39 0 0 1-.25.1zM24.75 18.1a.39.39 0 0 1-.25-.1.36.36 0 0 1 0-.5.36.36 0 0 1 .6.25.39.39 0 0 1-.1.25.39.39 0 0 1-.25.1zM8.25 27.35a.39.39 0 0 1-.25-.1.36.36 0 0 1 0-.5.36.36 0 0 1 .6.25.39.39 0 0 1-.1.25.39.39 0 0 1-.25.1zM16 31.85a.39.39 0 0 1-.25-.1.36.36 0 0 1 0-.5.38.38 0 0 1 .5 0 .36.36 0 0 1 0 .5.39.39 0 0 1-.25.1zM10.5 33.6a.39.39 0 0 1-.25-.1.4.4 0 0 1-.1-.25.33.33 0 0 1 .11-.25.36.36 0 0 1 .49 0 .35.35 0 0 1 .1.25.37.37 0 0 1-.1.25.39.39 0 0 1-.25.1zM5.25 37.1A.39.39 0 0 1 5 37a.36.36 0 0 1 0-.5.38.38 0 0 1 .5 0 .37.37 0 0 1 .1.25.39.39 0 0 1-.1.25.39.39 0 0 1-.25.1zM3.25 20.6a.39.39 0 0 1-.25-.1.36.36 0 0 1 0-.5.38.38 0 0 1 .5 0 .36.36 0 0 1 0 .5.39.39 0 0 1-.25.1zM20.5 30.85a.39.39 0 0 1-.25-.1.4.4 0 0 1-.1-.25.33.33 0 0 1 .11-.25.35.35 0 0 1 .59.25.39.39 0 0 1-.1.25.39.39 0 0 1-.25.1zM17.5 35.6a.39.39 0 0 1-.25-.1.36.36 0 0 1 0-.5.37.37 0 0 1 .5 0 .36.36 0 0 1 0 .5.39.39 0 0 1-.25.1zM16 39.1a.39.39 0 0 1-.25-.1.4.4 0 0 1-.1-.25.33.33 0 0 1 .11-.25.36.36 0 0 1 .49 0 .35.35 0 0 1 .1.25.39.39 0 0 1-.1.25.37.37 0 0 1-.25.1zM12.75 41.35a.39.39 0 0 1-.25-.1.4.4 0 0 1-.1-.25.33.33 0 0 1 .11-.25.36.36 0 0 1 .49 0 .35.35 0 0 1 .1.25.39.39 0 0 1-.1.25.39.39 0 0 1-.25.1zM12.75 46.6a.39.39 0 0 1-.25-.1.4.4 0 0 1-.1-.25.33.33 0 0 1 .11-.25.36.36 0 0 1 .49 0 .35.35 0 0 1 .1.25.39.39 0 0 1-.1.25.39.39 0 0 1-.25.1zM5.75 48.6a.39.39 0 0 1-.25-.1.36.36 0 0 1 0-.5.38.38 0 0 1 .5 0 .36.36 0 0 1 0 .5.39.39 0 0 1-.25.1zM11 54.6a.39.39 0 0 1-.25-.1.36.36 0 0 1 0-.5.38.38 0 0 1 .5 0 .36.36 0 0 1 0 .5.39.39 0 0 1-.25.1zM15.5 58.6a.39.39 0 0 1-.25-.1.36.36 0 0 1 0-.5.37.37 0 0 1 .5 0 .36.36 0 0 1 0 .5.39.39 0 0 1-.25.1zM6 63.6a.39.39 0 0 1-.25-.1.36.36 0 0 1 0-.5.38.38 0 0 1 .5 0 .35.35 0 0 1 .1.25.39.39 0 0 1-.1.25.39.39 0 0 1-.25.1zM2.25 62.1A.39.39 0 0 1 2 62a.36.36 0 0 1 0-.5.37.37 0 0 1 .49 0 .34.34 0 0 1 .11.25.39.39 0 0 1-.1.25.39.39 0 0 1-.25.1zM9 68.1a.39.39 0 0 1-.25-.1.36.36 0 0 1 0-.5.36.36 0 0 1 .6.25.39.39 0 0 1-.1.25.37.37 0 0 1-.25.1zM13.5 69.6a.39.39 0 0 1-.25-.1.36.36 0 0 1 0-.5.38.38 0 0 1 .5 0 .36.36 0 0 1 0 .5.39.39 0 0 1-.25.1zM21.5 68.6a.39.39 0 0 1-.25-.1.4.4 0 0 1-.1-.25.33.33 0 0 1 .11-.25.35.35 0 0 1 .59.25.39.39 0 0 1-.1.25.39.39 0 0 1-.25.1zM23 65.85a.39.39 0 0 1-.25-.1.36.36 0 0 1 0-.5.37.37 0 0 1 .5 0 .36.36 0 0 1 0 .5.37.37 0 0 1-.25.1zM22.25 60.1A.39.39 0 0 1 22 60a.36.36 0 0 1 0-.5.38.38 0 0 1 .5 0 .36.36 0 0 1 0 .5.37.37 0 0 1-.25.1zM24.25 57.6a.39.39 0 0 1-.25-.1.4.4 0 0 1-.1-.25.35.35 0 0 1 .6-.25.37.37 0 0 1 .1.25.39.39 0 0 1-.1.25.37.37 0 0 1-.25.1zM26.25 47.85a.39.39 0 0 1-.25-.1.36.36 0 0 1 0-.5.37.37 0 0 1 .5 0 .36.36 0 0 1 0 .5.39.39 0 0 1-.25.1zM25.75 43.6a.39.39 0 0 1-.25-.1.36.36 0 0 1 0-.5.37.37 0 0 1 .5 0 .36.36 0 0 1 0 .5.39.39 0 0 1-.25.1zM32.25 31.1A.39.39 0 0 1 32 31a.4.4 0 0 1-.1-.25.33.33 0 0 1 .1-.25.35.35 0 0 1 .59.25.39.39 0 0 1-.1.25.39.39 0 0 1-.24.1zM34.25 27.85a.39.39 0 0 1-.25-.1.4.4 0 0 1-.1-.25.35.35 0 0 1 .1-.25.37.37 0 0 1 .5 0 .36.36 0 0 1 0 .5.37.37 0 0 1-.25.1zM41.75 25.85a.39.39 0 0 1-.25-.1.36.36 0 0 1 0-.5.37.37 0 0 1 .5 0 .36.36 0 0 1 0 .5.39.39 0 0 1-.25.1zM43 20.85a.36.36 0 0 1-.25-.11.33.33 0 0 1-.1-.24.4.4 0 0 1 .1-.25.37.37 0 0 1 .5 0 .39.39 0 0 1 .1.25.34.34 0 0 1-.11.25.34.34 0 0 1-.24.1zM36.5 19.35a.39.39 0 0 1-.25-.1.37.37 0 0 1-.1-.25.31.31 0 0 1 .1-.24.35.35 0 0 1 .5 0 .36.36 0 0 1 0 .5.39.39 0 0 1-.25.09zM27.75 22.35a.39.39 0 0 1-.25-.1.36.36 0 0 1 0-.5.37.37 0 0 1 .5 0 .36.36 0 0 1 0 .5.39.39 0 0 1-.25.1zM52 22.1a.33.33 0 0 1-.25-.1.35.35 0 0 1-.1-.24.4.4 0 0 1 .1-.25.36.36 0 0 1 .6.25.39.39 0 0 1-.1.25.37.37 0 0 1-.25.09zM43.25 17.85a.37.37 0 0 1-.25-.1.36.36 0 0 1 0-.5.38.38 0 0 1 .5 0 .36.36 0 0 1 0 .5.39.39 0 0 1-.25.1zM50.5 18.1a.37.37 0 0 1-.25-.1.36.36 0 0 1 0-.5.36.36 0 0 1 .6.25.39.39 0 0 1-.1.25.39.39 0 0 1-.25.1zM59.5 17.35a.39.39 0 0 1-.25-.1.4.4 0 0 1-.1-.25.33.33 0 0 1 .11-.25.36.36 0 0 1 .49 0 .35.35 0 0 1 .1.25.39.39 0 0 1-.1.25.39.39 0 0 1-.25.1zM58.25 14.1A.37.37 0 0 1 58 14a.36.36 0 0 1 0-.5.36.36 0 0 1 .6.25.39.39 0 0 1-.1.25.39.39 0 0 1-.25.1zM61.5 11.1a.39.39 0 0 1-.25-.1.4.4 0 0 1-.1-.25.33.33 0 0 1 .11-.25.36.36 0 0 1 .49 0 .32.32 0 0 1 .1.24.39.39 0 0 1-.1.25.39.39 0 0 1-.25.11zM58.75 7.6a.39.39 0 0 1-.25-.1.35.35 0 0 1-.1-.25.31.31 0 0 1 .1-.25.35.35 0 0 1 .6.24.39.39 0 0 1-.1.25.39.39 0 0 1-.25.11zM60 4.85a.34.34 0 0 1-.25-.11.35.35 0 0 1-.1-.24.33.33 0 0 1 .11-.25.36.36 0 0 1 .49 0 .35.35 0 0 1 .1.25.39.39 0 0 1-.1.25.39.39 0 0 1-.25.1zM67.5 6.1a.39.39 0 0 1-.25-.1.36.36 0 0 1-.1-.25.35.35 0 0 1 .6-.25.36.36 0 0 1 0 .5.39.39 0 0 1-.25.1zM70.75 8.6a.39.39 0 0 1-.25-.1.36.36 0 0 1-.1-.25.38.38 0 0 1 .1-.25.37.37 0 0 1 .5 0 .36.36 0 0 1 .11.25.39.39 0 0 1-.1.25.39.39 0 0 1-.26.1zM65.75 9.85a.39.39 0 0 1-.25-.1.4.4 0 0 1-.1-.25.35.35 0 0 1 .6-.25.36.36 0 0 1 0 .5.39.39 0 0 1-.25.1zM60.25 23.85a.39.39 0 0 1-.25-.1.36.36 0 0 1 0-.5.37.37 0 0 1 .5 0 .36.36 0 0 1 0 .5.39.39 0 0 1-.25.1zM55.5 23.85a.39.39 0 0 1-.25-.1.36.36 0 0 1 0-.5.38.38 0 0 1 .5 0 .36.36 0 0 1 0 .5.39.39 0 0 1-.25.1zM55.5 18.85a.34.34 0 0 1-.25-.11.35.35 0 0 1-.1-.24.33.33 0 0 1 .11-.25.36.36 0 0 1 .49 0 .35.35 0 0 1 .1.25.39.39 0 0 1-.1.25.39.39 0 0 1-.25.1zM65 25.85a.39.39 0 0 1-.25-.1.4.4 0 0 1-.1-.25.33.33 0 0 1 .11-.25.36.36 0 0 1 .49 0 .35.35 0 0 1 .1.25.39.39 0 0 1-.1.25.39.39 0 0 1-.25.1zM57.75 30.85a.33.33 0 0 1-.25-.11.35.35 0 0 1-.1-.24.33.33 0 0 1 .11-.25.36.36 0 0 1 .49 0 .35.35 0 0 1 .1.25.39.39 0 0 1-.1.25.39.39 0 0 1-.25.1zM52.75 32.85a.36.36 0 0 1-.25-.11.35.35 0 0 1-.1-.24.33.33 0 0 1 .11-.25.36.36 0 0 1 .49 0 .35.35 0 0 1 .1.25.39.39 0 0 1-.1.25.39.39 0 0 1-.25.1zM47.5 33.85a.36.36 0 0 1-.25-.11.35.35 0 0 1-.1-.24.33.33 0 0 1 .11-.25.36.36 0 0 1 .49 0 .35.35 0 0 1 .1.25.39.39 0 0 1-.1.25.39.39 0 0 1-.25.1zM44.25 39.35a.36.36 0 0 1-.25-.11.35.35 0 0 1-.1-.24.4.4 0 0 1 .1-.25.37.37 0 0 1 .5 0 .37.37 0 0 1 .1.25.33.33 0 0 1-.11.25.34.34 0 0 1-.24.1zM34 41.6a.39.39 0 0 1-.25-.1.36.36 0 0 1 0-.5.37.37 0 0 1 .5 0 .36.36 0 0 1 0 .5.39.39 0 0 1-.25.1zM40.75 48.1a.39.39 0 0 1-.25-.1.36.36 0 0 1 0-.5.35.35 0 0 1 .49 0 .34.34 0 0 1 .11.25.39.39 0 0 1-.1.25.39.39 0 0 1-.25.1zM45.75 52.35a.39.39 0 0 1-.25-.1.4.4 0 0 1-.1-.25.33.33 0 0 1 .11-.25.35.35 0 0 1 .59.25.39.39 0 0 1-.1.25.39.39 0 0 1-.25.1zM46.5 56.85a.39.39 0 0 1-.25-.1.36.36 0 0 1 0-.5.35.35 0 0 1 .49 0 .36.36 0 0 1 .11.25.39.39 0 0 1-.1.25.39.39 0 0 1-.25.1zM42 59.6a.34.34 0 0 1-.24-.1.36.36 0 0 1-.11-.25.4.4 0 0 1 .1-.25.37.37 0 0 1 .5 0 .36.36 0 0 1 0 .5.39.39 0 0 1-.25.1zM40 62.85a.39.39 0 0 1-.25-.1.36.36 0 0 1 0-.5.37.37 0 0 1 .5 0 .36.36 0 0 1 0 .5.37.37 0 0 1-.25.1zM36 62.85a.39.39 0 0 1-.25-.1.4.4 0 0 1-.1-.25.33.33 0 0 1 .11-.25.35.35 0 0 1 .59.25.39.39 0 0 1-.1.25.39.39 0 0 1-.25.1zM36.5 52.85a.39.39 0 0 1-.25-.1.35.35 0 0 1-.1-.25.4.4 0 0 1 .1-.25.36.36 0 0 1 .5 0 .32.32 0 0 1 .1.24.39.39 0 0 1-.1.25.39.39 0 0 1-.25.11zM30 63.6a.34.34 0 0 1-.24-.1.36.36 0 0 1-.11-.25.33.33 0 0 1 .11-.25.36.36 0 0 1 .49 0 .35.35 0 0 1 .1.25.39.39 0 0 1-.1.25.39.39 0 0 1-.25.1zM31.5 68.6a.39.39 0 0 1-.25-.1.36.36 0 0 1 0-.5.37.37 0 0 1 .5 0 .36.36 0 0 1 0 .5.39.39 0 0 1-.25.1zM37 71.1a.39.39 0 0 1-.25-.1.38.38 0 0 1-.1-.25.33.33 0 0 1 .11-.25.36.36 0 0 1 .49 0 .35.35 0 0 1 .1.25.37.37 0 0 1-.1.25.39.39 0 0 1-.25.1zM63 57.1a.39.39 0 0 1-.25-.1.4.4 0 0 1-.1-.25.33.33 0 0 1 .11-.25.36.36 0 0 1 .49 0 .35.35 0 0 1 .1.25.39.39 0 0 1-.1.25.39.39 0 0 1-.25.1zM60 50.85a.33.33 0 0 1-.25-.11.35.35 0 0 1-.1-.24.35.35 0 0 1 .59-.25.36.36 0 0 1 .11.25.39.39 0 0 1-.1.25.37.37 0 0 1-.25.1zM54.5 50.6a.39.39 0 0 1-.25-.1.38.38 0 0 1-.1-.25.35.35 0 0 1 .7 0 .35.35 0 0 1-.1.24.34.34 0 0 1-.25.11zM54.75 41.85a.36.36 0 0 1-.25-.11.33.33 0 0 1-.1-.24.4.4 0 0 1 .1-.25.37.37 0 0 1 .5 0 .39.39 0 0 1 .1.25.34.34 0 0 1-.11.25.34.34 0 0 1-.24.1zM62.5 42.35a.39.39 0 0 1-.25-.1.36.36 0 0 1 0-.5.37.37 0 0 1 .5 0 .36.36 0 0 1 0 .5.39.39 0 0 1-.25.1zM67 47.6a.34.34 0 0 1-.24-.1.36.36 0 0 1-.11-.25.4.4 0 0 1 .1-.25.36.36 0 0 1 .49 0 .32.32 0 0 1 .11.25.39.39 0 0 1-.1.25.39.39 0 0 1-.25.1zM69.5 54.35a.34.34 0 0 1-.24-.1.36.36 0 0 1-.11-.25.4.4 0 0 1 .1-.25.36.36 0 0 1 .6.25.39.39 0 0 1-.1.25.39.39 0 0 1-.25.1zM63.5 61.85a.34.34 0 0 1-.24-.1.36.36 0 0 1-.11-.25.4.4 0 0 1 .1-.25.36.36 0 0 1 .49 0 .32.32 0 0 1 .11.25.39.39 0 0 1-.1.25.39.39 0 0 1-.25.1zM70.25 61.1A.39.39 0 0 1 70 61a.4.4 0 0 1-.1-.25.33.33 0 0 1 .1-.25.36.36 0 0 1 .49 0 .35.35 0 0 1 .1.25.39.39 0 0 1-.1.25.39.39 0 0 1-.24.1zM64.75 65.6a.39.39 0 0 1-.25-.1.36.36 0 0 1 0-.5.36.36 0 0 1 .5 0 .35.35 0 0 1 .1.24.39.39 0 0 1-.1.25.39.39 0 0 1-.25.11zM65.75 68.35a.39.39 0 0 1-.25-.1.36.36 0 0 1 0-.5.37.37 0 0 1 .5 0 .36.36 0 0 1 0 .5.39.39 0 0 1-.25.1zM62.5 70.35a.39.39 0 0 1-.25-.1.4.4 0 0 1-.1-.25.34.34 0 0 1 .11-.25.36.36 0 0 1 .49 0 .32.32 0 0 1 .1.24.39.39 0 0 1-.1.25.39.39 0 0 1-.25.11zM52.75 69.85a.35.35 0 0 1-.25-.1.36.36 0 0 1 0-.5.36.36 0 0 1 .6.25.39.39 0 0 1-.1.25.37.37 0 0 1-.25.1zM44.75 66.6a.34.34 0 0 1-.25-.11.35.35 0 0 1-.1-.24.33.33 0 0 1 .11-.25.36.36 0 0 1 .49 0 .35.35 0 0 1 .1.25.39.39 0 0 1-.1.25.39.39 0 0 1-.25.1zM28.5 71.35a.39.39 0 0 1-.25-.1.36.36 0 0 1-.1-.25.33.33 0 0 1 .11-.25.35.35 0 0 1 .59.25.33.33 0 0 1-.11.25.34.34 0 0 1-.24.1zM3 29.6a.39.39 0 0 1-.25-.1.36.36 0 0 1 0-.5.38.38 0 0 1 .5 0 .36.36 0 0 1 0 .5.39.39 0 0 1-.25.1zM13.25 5.1A.36.36 0 0 1 13 5a.32.32 0 0 1-.1-.24.38.38 0 0 1 .1-.26.36.36 0 0 1 .6.25.33.33 0 0 1-.11.25.34.34 0 0 1-.24.1zM70.25 34.6a.39.39 0 0 1-.25-.1.4.4 0 0 1-.1-.25.33.33 0 0 1 .1-.25.36.36 0 0 1 .49 0 .35.35 0 0 1 .1.25.39.39 0 0 1-.1.25.39.39 0 0 1-.24.1zM71.25 41.35a.39.39 0 0 1-.25-.1.36.36 0 0 1 0-.5.37.37 0 0 1 .5 0 .36.36 0 0 1 0 .5.39.39 0 0 1-.25.1zM1 51.85a.39.39 0 0 1-.25-.1.4.4 0 0 1-.1-.25.33.33 0 0 1 .11-.25.36.36 0 0 1 .49 0 .35.35 0 0 1 .1.25.39.39 0 0 1-.1.25.39.39 0 0 1-.25.1zM72 23.6a.39.39 0 0 1-.25-.1.36.36 0 0 1 0-.5.38.38 0 0 1 .5 0 .36.36 0 0 1 0 .5.39.39 0 0 1-.25.1zM69 26.6a.39.39 0 0 1-.25-.1.36.36 0 0 1 0-.5.37.37 0 0 1 .5 0 .39.39 0 0 1 .1.25.35.35 0 0 1-.1.25.39.39 0 0 1-.25.1zM68.5 60.35a.39.39 0 0 1-.25-.1.4.4 0 0 1-.1-.25.35.35 0 0 1 .6-.25.36.36 0 0 1 0 .5.39.39 0 0 1-.25.1zM71.5 68.35a.39.39 0 0 1-.25-.1.36.36 0 0 1 0-.5.37.37 0 0 1 .5 0 .39.39 0 0 1 .1.25.35.35 0 0 1-.1.25.39.39 0 0 1-.25.1zM.5 57.85a.39.39 0 0 1-.25-.1.36.36 0 0 1 0-.5.38.38 0 0 1 .5 0 .36.36 0 0 1 0 .5.39.39 0 0 1-.25.1zM2.75 71.35a.39.39 0 0 1-.25-.1.36.36 0 0 1 0-.5.36.36 0 0 1 .6.25.39.39 0 0 1-.1.25.39.39 0 0 1-.25.1zM70.25 24.1A.39.39 0 0 1 70 24a.4.4 0 0 1-.1-.25.33.33 0 0 1 .1-.25.36.36 0 0 1 .49 0 .35.35 0 0 1 .1.25.39.39 0 0 1-.1.25.39.39 0 0 1-.24.1zM1.25 16.85a.39.39 0 0 1-.25-.1.36.36 0 0 1 0-.5.38.38 0 0 1 .5 0 .36.36 0 0 1 0 .5.39.39 0 0 1-.25.1zM18 13.15a.65.65 0 0 1-.65-.65.66.66 0 0 1 .19-.5.68.68 0 0 1 .92 0 .65.65 0 0 1-.46 1.15zM29.25 11.15a.66.66 0 0 1-.46-.15.68.68 0 0 1-.19-.46.66.66 0 0 1 .19-.54.67.67 0 0 1 .92 0 .66.66 0 0 1 .19.46.65.65 0 0 1-.65.69zM29.25 3.65A.65.65 0 0 1 28.6 3a.64.64 0 0 1 .19-.46.68.68 0 0 1 .92 0 .65.65 0 0 1 0 .92.68.68 0 0 1-.46.19zM40.25 10.65a.65.65 0 0 1-.65-.65.66.66 0 0 1 .19-.46.68.68 0 0 1 .92 0 .63.63 0 0 1 .19.46.68.68 0 0 1-.19.46.66.66 0 0 1-.46.19zM45 12.15a.61.61 0 0 1-.46-.2.63.63 0 0 1-.19-.45.66.66 0 0 1 .19-.5.68.68 0 0 1 .92 0 .63.63 0 0 1 .19.46.61.61 0 0 1-.2.46.6.6 0 0 1-.45.23zM47.25 23.15a.65.65 0 0 1-.46-1.15.68.68 0 0 1 .92 0 .65.65 0 0 1-.46 1.15zM54.75 7.15a.64.64 0 0 1-.46-.15.65.65 0 0 1 0-.92.68.68 0 0 1 .92 0 .64.64 0 0 1 .19.46.66.66 0 0 1-.19.46.64.64 0 0 1-.46.15zM64 6.9a.65.65 0 0 1-.46-1.11.68.68 0 0 1 .92 0A.65.65 0 0 1 64 6.9zM65 2.9a.66.66 0 0 1-.46-.19.68.68 0 0 1-.19-.46.66.66 0 0 1 .19-.46.68.68 0 0 1 .92 0 .68.68 0 0 1 .19.46.62.62 0 0 1-.18.45.67.67 0 0 1-.47.2zM69.5 18.4a.65.65 0 0 1-.5-1.11.67.67 0 0 1 .92 0 .65.65 0 0 1-.42 1.11zM8 47.4a.64.64 0 0 1-.46-.19.68.68 0 0 1-.19-.46.66.66 0 0 1 .19-.46.68.68 0 0 1 .92 0 .66.66 0 0 1 .19.46.68.68 0 0 1-.19.46.64.64 0 0 1-.46.19zM5 57.15a.64.64 0 0 1-.46-.15.65.65 0 0 1 0-.92.67.67 0 0 1 .92 0 .65.65 0 0 1 0 .92.64.64 0 0 1-.46.15zM2.25 67.4a.66.66 0 0 1-.46-.19.68.68 0 0 1-.19-.46.66.66 0 0 1 .19-.46.68.68 0 0 1 .92 0 .66.66 0 0 1 .19.46.68.68 0 0 1-.19.46.66.66 0 0 1-.46.19zM17.75 70.15a.66.66 0 0 1-.46-.15.68.68 0 0 1-.19-.46.66.66 0 0 1 .19-.54.68.68 0 0 1 .92 0 .66.66 0 0 1 .19.46.68.68 0 0 1-.19.46.66.66 0 0 1-.46.23zM19.25 62.65a.65.65 0 0 1-.65-.65.64.64 0 0 1 .19-.46.67.67 0 0 1 .92 0 .66.66 0 0 1 .19.46.68.68 0 0 1-.19.46.66.66 0 0 1-.46.19zM21 45.65a.65.65 0 0 1-.65-.65.64.64 0 0 1 .19-.46.67.67 0 0 1 .92 0 .66.66 0 0 1 .19.46.68.68 0 0 1-.19.46.64.64 0 0 1-.46.19zM28.5 51.4a.65.65 0 0 1-.5-1.11.67.67 0 0 1 .92 0 .66.66 0 0 1 .19.46.68.68 0 0 1-.19.46.64.64 0 0 1-.42.19zM34 60.65a.65.65 0 0 1-.65-.65.64.64 0 0 1 .19-.46.68.68 0 0 1 .92 0 .63.63 0 0 1 .19.46.64.64 0 0 1-.19.46.66.66 0 0 1-.46.19zM34.25 67.15a.64.64 0 0 1-.46-.15.65.65 0 0 1 0-.92.67.67 0 0 1 .92 0 .65.65 0 0 1 0 .92.66.66 0 0 1-.46.15zM41.75 55.4a.65.65 0 0 1-.46-1.11.68.68 0 0 1 .92 0 .65.65 0 0 1-.46 1.11zM52.25 60.15a.65.65 0 0 1-.46-1.15.68.68 0 0 1 .92 0 .65.65 0 0 1-.46 1.15zM55 65.65a.66.66 0 0 1-.46-.19.68.68 0 0 1-.19-.46.64.64 0 0 1 .19-.46.68.68 0 0 1 .92 0 .64.64 0 0 1 .19.46.68.68 0 0 1-.19.46.66.66 0 0 1-.46.19zM25.25 24.9a.66.66 0 0 1-.46-.19.68.68 0 0 1-.19-.46.66.66 0 0 1 .19-.46.68.68 0 0 1 .92 0 .66.66 0 0 1 .19.46.68.68 0 0 1-.19.46.66.66 0 0 1-.46.19zM35.25 23.65a.64.64 0 0 1-.46-.19.65.65 0 0 1 0-.92.68.68 0 0 1 .92 0 .65.65 0 0 1-.46 1.11zM45 29.9a.65.65 0 0 1-.46-1.11.68.68 0 0 1 .92 0 .63.63 0 0 1 .19.46.67.67 0 0 1-.65.65zM52 43.4a.65.65 0 0 1-.46-1.11.67.67 0 0 1 .92 0 .64.64 0 0 1 .19.46.65.65 0 0 1-.65.65zM67 52.15a.65.65 0 0 1-.65-.65.61.61 0 0 1 .2-.46.67.67 0 0 1 .91 0 .65.65 0 0 1-.46 1.11zM47.25 48.15a.65.65 0 0 1-.46-1.15.68.68 0 0 1 .92 0 .65.65 0 0 1-.46 1.15zM37 44.9a.66.66 0 0 1-.46-.19.68.68 0 0 1-.19-.46.66.66 0 0 1 .19-.46.68.68 0 0 1 .92 0 .66.66 0 0 1 .19.46.68.68 0 0 1-.19.46.66.66 0 0 1-.46.19zM17 28.9a.65.65 0 0 1-.46-1.11.68.68 0 0 1 .92 0 .65.65 0 0 1 0 .92.64.64 0 0 1-.46.19zM11.25 37.15a.65.65 0 0 1-.65-.65.64.64 0 0 1 .19-.5.67.67 0 0 1 .92 0 .65.65 0 0 1-.46 1.15zM67.5 31.15A.66.66 0 0 1 67 31a.68.68 0 0 1-.19-.46A.66.66 0 0 1 67 30a.68.68 0 0 1 1 0 .64.64 0 0 1 .19.46.65.65 0 0 1-.69.69zM7.25 16.15a.67.67 0 0 1-.65-.65.66.66 0 0 1 .19-.5.67.67 0 0 1 .92 0 .65.65 0 0 1 0 .92.64.64 0 0 1-.46.23zM8.5 5.65a.68.68 0 0 1-.5-.19.66.66 0 0 1-.15-.46.64.64 0 0 1 .15-.46.67.67 0 0 1 .92 0 .64.64 0 0 1 .23.46.65.65 0 0 1-.65.65zM3.5 2.9a.66.66 0 0 1-.5-.19.68.68 0 0 1-.19-.46.66.66 0 0 1 .19-.46.68.68 0 0 1 .92 0 .66.66 0 0 1 .19.46.68.68 0 0 1-.11.46.66.66 0 0 1-.5.19zM66.5 37.65a.65.65 0 0 1-.5-1.11.68.68 0 0 1 .92 0 .64.64 0 0 1 .19.46.66.66 0 0 1-.19.46.64.64 0 0 1-.42.19zM44 63.4a.66.66 0 0 1-.46-.19.68.68 0 0 1-.19-.46.66.66 0 0 1 .19-.46.67.67 0 0 1 .92 0 .66.66 0 0 1 .19.46.68.68 0 0 1-.19.46.66.66 0 0 1-.46.19zM25.75 70.4a.66.66 0 0 1-.46-.19.68.68 0 0 1-.19-.46.66.66 0 0 1 .19-.46.67.67 0 0 1 .92 0 .66.66 0 0 1 .19.46.68.68 0 0 1-.19.46.66.66 0 0 1-.46.19zM22 42.15a.66.66 0 0 1-.46-.15.65.65 0 0 1 0-.92.68.68 0 0 1 .92 0 .65.65 0 0 1-.46 1.07zM24 29.4a.66.66 0 0 1-.46-.19.68.68 0 0 1-.19-.46.66.66 0 0 1 .19-.46.67.67 0 0 1 .92 0 .64.64 0 0 1 .19.46.65.65 0 0 1-.65.65zM41.5 34.9a.65.65 0 0 1-.5-1.11.68.68 0 0 1 .92 0 .66.66 0 0 1 .19.46.68.68 0 0 1-.19.46.66.66 0 0 1-.42.19zM67.5 44.15A.66.66 0 0 1 67 44a.68.68 0 0 1-.19-.46A.66.66 0 0 1 67 43a.68.68 0 0 1 1 0 .64.64 0 0 1 .19.46.65.65 0 0 1-.69.69zM53.25 15.4a.65.65 0 0 1-.46-1.11.68.68 0 0 1 .92 0 .66.66 0 0 1 .19.46.68.68 0 0 1-.19.46.66.66 0 0 1-.46.19zM34 16.4a.66.66 0 0 1-.46-.19.68.68 0 0 1-.19-.46.64.64 0 0 1 .19-.46.68.68 0 0 1 .92 0 .64.64 0 0 1 .19.46.65.65 0 0 1-.65.65zM12.75 19.65a.65.65 0 0 1-.46-1.11.67.67 0 0 1 .92 0 .65.65 0 0 1-.46 1.11zM49.5 4.9a.65.65 0 0 1-.5-1.11.68.68 0 0 1 .92 0 .65.65 0 0 1-.42 1.11zM59 21.15a.65.65 0 0 1-.46-1.15.68.68 0 0 1 .92 0 .64.64 0 0 1 .19.46.65.65 0 0 1-.65.69zM67.5 57.65a.66.66 0 0 1-.5-.19.68.68 0 0 1-.15-.46.66.66 0 0 1 .15-.46.68.68 0 0 1 .92 0 .64.64 0 0 1 .19.46.65.65 0 0 1-.61.65zM5.25 70.15a.64.64 0 0 1-.46-.15.65.65 0 0 1 0-.92.67.67 0 0 1 .92 0 .65.65 0 0 1 0 .92.64.64 0 0 1-.46.15zM2.75 13.65a.61.61 0 0 1-.46-.2.62.62 0 0 1-.19-.45.66.66 0 0 1 .19-.46.67.67 0 0 1 .92 0 .65.65 0 0 1 0 .92.64.64 0 0 1-.46.19zM16.5 3.65a.65.65 0 0 1-.5-1.11.68.68 0 0 1 .92 0 .65.65 0 0 1-.42 1.11zM40.5 4.9a.65.65 0 0 1-.5-1.11.68.68 0 0 1 .92 0 .64.64 0 0 1 .19.46.65.65 0 0 1-.61.65zM2.75 32.4a.64.64 0 0 1-.46-.19.65.65 0 0 1 0-.92.68.68 0 0 1 .92 0 .65.65 0 0 1-.46 1.11zM7.5 25.4a.64.64 0 0 1-.5-.19.65.65 0 0 1 0-.92.68.68 0 0 1 .92 0 .64.64 0 0 1 .19.46.66.66 0 0 1-.19.46.64.64 0 0 1-.42.19zM4 47.15a.66.66 0 0 1-.46-.15.68.68 0 0 1-.19-.46.66.66 0 0 1 .19-.54.67.67 0 0 1 .92 0 .66.66 0 0 1 .19.46.68.68 0 0 1-.19.46.64.64 0 0 1-.46.23zM11 50.9a.66.66 0 0 1-.46-.19.68.68 0 0 1-.19-.46.64.64 0 0 1 .19-.46.68.68 0 0 1 .92 0 .66.66 0 0 1 .19.46.68.68 0 0 1-.19.46.66.66 0 0 1-.46.19zM10 60.15a.64.64 0 0 1-.46-.15.65.65 0 0 1 0-.92.68.68 0 0 1 .92 0 .65.65 0 0 1 0 .92.64.64 0 0 1-.46.15zM13.5 66.15A.66.66 0 0 1 13 66a.68.68 0 0 1-.19-.46A.64.64 0 0 1 13 65a.67.67 0 0 1 1 0 .66.66 0 0 1 .19.46.68.68 0 0 1-.19.54.66.66 0 0 1-.5.15zM22 53.65a.66.66 0 0 1-.46-.19.64.64 0 0 1-.19-.46.6.6 0 0 1 .2-.46.65.65 0 0 1 1.1.46.68.68 0 0 1-.19.46.66.66 0 0 1-.46.19zM31.25 37.9a.66.66 0 0 1-.46-.19.68.68 0 0 1-.19-.46.66.66 0 0 1 .19-.46.68.68 0 0 1 .92 0 .66.66 0 0 1 .19.46.68.68 0 0 1-.19.46.66.66 0 0 1-.46.19zM26 34.4a.65.65 0 0 1-.46-1.11.67.67 0 0 1 .92 0A.65.65 0 0 1 26 34.4zM37.25 28.9a.66.66 0 0 1-.46-.19.68.68 0 0 1-.19-.46.66.66 0 0 1 .19-.46.68.68 0 0 1 .92 0 .66.66 0 0 1 .19.46.68.68 0 0 1-.19.46.66.66 0 0 1-.46.19zM61.75 16.9a.66.66 0 0 1-.46-.19.68.68 0 0 1-.19-.46.66.66 0 0 1 .19-.46.68.68 0 0 1 .92 0 .64.64 0 0 1 .19.46.65.65 0 0 1-.65.65zM61.25 27.4a.64.64 0 0 1-.46-.19.68.68 0 0 1-.19-.46.66.66 0 0 1 .19-.46.68.68 0 0 1 .92 0 .65.65 0 0 1 0 .92.64.64 0 0 1-.46.19zM58.75 57.4a.66.66 0 0 1-.46-.19.68.68 0 0 1-.19-.46.66.66 0 0 1 .19-.46.68.68 0 0 1 .92 0 .66.66 0 0 1 .19.46.68.68 0 0 1-.19.46.66.66 0 0 1-.46.19zM59.25 44.65a.64.64 0 0 1-.46-.19.65.65 0 0 1 0-.92.68.68 0 0 1 .92 0 .65.65 0 0 1 0 .92.64.64 0 0 1-.46.19zM55.75 35.9a.66.66 0 0 1-.46-.19.68.68 0 0 1-.19-.46.66.66 0 0 1 .19-.46.68.68 0 0 1 .92 0 .66.66 0 0 1 .19.46.68.68 0 0 1-.19.46.66.66 0 0 1-.46.19zM69.25 70.9a.68.68 0 0 1-.46-.19.65.65 0 0 1 0-.92.69.69 0 0 1 .92 0 .65.65 0 0 1-.46 1.11zM60.75 66.15a.65.65 0 0 1-.46-1.15.67.67 0 0 1 .92 0 .64.64 0 0 1 .19.46.65.65 0 0 1-.65.69zM44.5 71.65a.65.65 0 0 1-.5-1.11.68.68 0 0 1 .92 0 .65.65 0 0 1-.42 1.11zM24.5 1.4a.65.65 0 0 1-.65-.65.64.64 0 0 1 .15-.46.67.67 0 0 1 .92 0 .66.66 0 0 1 .19.46.68.68 0 0 1-.19.46.64.64 0 0 1-.42.19zM0 23.6a.39.39 0 0 1-.25-.1.36.36 0 0 1 0-.5.38.38 0 0 1 .5 0 .39.39 0 0 1 .1.25.39.39 0 0 1-.1.25.39.39 0 0 1-.25.1z"/>
    </pattern>
  </defs>
  <path class="c" d="M546.74 1068.15c-1.19-6.25-3.61-15.21-6.42-25.59-5.09-18.86-11.43-42.33-11.43-54.79 0-8.18 1.07-38.05 2.21-69.67 1.6-44.41 3.41-94.74 2.9-102.82-.36-5.84-3-32.2-6.15-62.73-4.21-41.37-9.44-92.86-10.91-113-2.36-32.26-16.2-45.35-26.31-54.91-1.29-1.22-2.52-2.39-3.68-3.54a48.33 48.33 0 0 0-9.39-7.39c-4.21-2.67-7.53-4.77-14.71-16.69-12.14-20.15-55.15-44.53-57-45.56a3.36 3.36 0 0 0-2.68-.27 21.4 21.4 0 0 0-5.74-6.74c-6.12-4.59-16.05-26.07-19.95-35.3 6.5-21.57 16.06-47.64 19.91-56.28 3.16-2.85 25-7.2 43.92-9.65.82-.14 20.11-3.53 36.42-9.54 17.75-6.54 22.94-30.84 21-46-1.76-13.52-5.26-26.54-7.66-31.93-1-2.25.61-8.76 2.7-13.67 1-1.43 4-6.09 2.8-11.26-.54-2.45-2.25-5.91-7.31-8.43a30.48 30.48 0 0 0-5.54-2v-.75l.19-.07c12.38-6.19 14.71-15.31 16-20.2l.3-1.14a8 8 0 0 0-2.69-8.67 26.45 26.45 0 0 0-3.85-2.74c-.64-.39-1.29-.8-1.91-1.22-4.93-3.39-12.69-9.84-15.1-13 .84-.3 2-.62 2.81-.85 3.52-1 7.51-2.11 9.91-5.1 4-5 4.83-10.27 2.75-17.57-.57-2-2.32-8.1-24.24-24.8-5.3-4-10.19-7.07-14.92-10-3.51-2.18-6.83-4.24-10.36-6.71a12.57 12.57 0 0 1-1.35-1.16c54.59-27.2 88.18-64.62 88.52-65 .08-.09.15-.18.22-.28.62-.86 15-21.15 11.53-35.4a15.61 15.61 0 0 0-8.48-10.56c-19.89-10.19-56.88 14.08-58.38 15.07l-10.91 6.85c-2 1-17.09 8.49-35.5 17.8-10-11.39-59.85-68.31-72-82-16.59-18.66-66.52-11.41-67-11.34-9.16 1.37-70.54 21-82 26.76a71.76 71.76 0 0 1-12.47 4.56c-5.92 1.74-11.51 3.38-16.78 7.82-8.35 7-55.65 66.81-67.67 86.55-11.76 19.32-15.9 52.56-18.39 82.52-2.21 26.54 40.6 86.31 42.42 88.85a3.35 3.35 0 0 0 2.72 1.41l15.09 18.35c.86 2.35 4.18 11.25 7.88 18.76a15.67 15.67 0 0 0-8.47-2.55c-1.1.06-2.72.24-4.7.47-7.12.81-19 2.16-26.45-.31-11.55-3.85-37.19-1.35-48.93 10l-1.36 1.3c-41.9 40.08-64.56 81.2-67.34 122.22-4.34 63.92-3.61 80.26 3.89 87.42a28.43 28.43 0 0 1 3 3.63c4.65 6.32 11.51 15.65 35.68 15.65h.27l-.76 1.12c-11.1 23.3-19 40.21-20.26 45.62-.36 1.6-1.6 5.48-3.18 10.39-6.84 21.38-21.08 65.87-18.5 93 1.15 12.19 2.87 32.54 4.69 54.09 3.09 36.7 6.6 78.3 8.4 92.16.64 5 1.72 12.19 3 20.72 4.35 29.09 10.92 73.06 10.05 93-.77 17.77 4.76 58 8.43 84.67 1.73 12.59 3.23 23.46 3.23 26.07 0 3.4 1.39 13.82 3.15 27 2.76 20.64 6.53 48.9 5.68 57.07-1.39 13.38-12.37 76.74-12.48 77.38a3.4 3.4 0 0 0 2 3.7l.79 1.43h504.36a3.41 3.41 0 0 0 3.39-3c.06-.55 6-55.08 7.69-88.9 1.71-34.27-5.05-83.74-8.59-102.33z"/>
  <path class="d" d="M388.8 179.79c8.56.55 26.23 3.35 26.41 3.38a3.53 3.53 0 0 0 .54 0 3.41 3.41 0 0 0 1.8-6.31 26.52 26.52 0 0 0-.16-8.43c.54-.27 1-.53 1.46-.77a3.412 3.412 0 0 0-3.36-5.94 164.53 164.53 0 0 1-15.77 6.88c2.32-2.91 5.73-6.16 10-7.13a3.41 3.41 0 1 0-1.52-6.65c-11.42 2.61-17.69 15.37-18 15.92a3.33 3.33 0 0 0-.31 1.64l-2.08.78a3.41 3.41 0 0 0 .99 6.63zm22.09-8.36a23.21 23.21 0 0 1-.1 4.16c-2.15-.32-4.73-.69-7.46-1.06 2.56-1 5.16-2.07 7.56-3.1zM256 223.26a3.41 3.41 0 0 0-4.71 1c-1.07 1.67-4.45 6.43-7.26 8.44-.7.5-1.48 1-2.26 1.41-3.69 2.18-9.28 5.48-7.33 13.71a30.67 30.67 0 0 1 .7 6.3c.13 3.56.28 7.59 4.42 10.35a3.41 3.41 0 0 0 3.78-5.68c-1.07-.71-1.25-1.36-1.39-4.93a37.31 37.31 0 0 0-.88-7.62c-.71-3 .21-3.93 4.16-6.26.95-.56 1.89-1.12 2.75-1.74 4.39-3.14 8.58-9.6 9-10.32a3.41 3.41 0 0 0-.98-4.66zM275.72 250.9c-3.23-.4-3.26-5.77-3.26-6a9 9 0 0 0-3.24-7 9.4 9.4 0 0 0-7.6-2.05 4.49 4.49 0 0 0-2.92 1.94c-2.22 3.27-1.13 11.75.18 18.29a3.41 3.41 0 0 0 6.69-1.34 60.29 60.29 0 0 1-1.32-12 2.65 2.65 0 0 1 .59.37 2.18 2.18 0 0 1 .79 1.76c0 5.78 2.86 12 9.24 12.77 3.31.41 6.67 2.85 6.82 4-.48.37-2 .86-4.66.39a3.412 3.412 0 0 0-1.19 6.72 18.71 18.71 0 0 0 3.24.3 11 11 0 0 0 6.75-2 7.13 7.13 0 0 0 2.82-5.06c.52-5.72-7.31-10.39-12.93-11.09zM250.6 108.23c.94 0 26.66.89 42.05 1.41l12.52 38.87a3.42 3.42 0 0 0 3.1 2.36h.15a3.41 3.41 0 0 0 3.15-2.09l14.07-33.5 37.34 7a3.41 3.41 0 0 0 3-5.83l-28.55-27.16 4.46-32.91a3.41 3.41 0 0 0-4.82-3.55l-25.75 12-35.31-24.03a3.41 3.41 0 0 0-5.13 4l12.3 33.85c-3.28 2.19-9.72 6.48-16.16 10.8-20.46 13.73-20.46 13.73-19.67 16.36a3.46 3.46 0 0 0 3.25 2.42zm38.6-25.4a3.41 3.41 0 0 0 1.32-4l-9.63-26.45 28.14 19.2a3.39 3.39 0 0 0 3.36.27l21.85-10.18-3.85 28.38a3.42 3.42 0 0 0 1 2.93l21.5 20.4-28.73-5.35a3.39 3.39 0 0 0-3.77 2l-11.5 27.62-10.43-32.38a3.42 3.42 0 0 0-3.13-2.36l-34.3-1.16c7.81-5.37 19.71-13.29 28.17-18.92zM180.2 242.03a3.41 3.41 0 0 0 3.22 2.45h.05a3.41 3.41 0 0 0 3.24-2.35c5.05-15.4 10.85-32.51 13-37.92l40.44.61h.05a3.41 3.41 0 0 0 2.21-6l-30.84-26.24c19.07-39.63 18.55-40.64 17.62-42.44a3.52 3.52 0 0 0-2.51-1.83c-1.55-.25-2.55-.4-37.8 21.83l-26.65-27a3.41 3.41 0 0 0-5.82 2.74l4.3 42.49-25.92 21.95a3.41 3.41 0 0 0 1.8 6l31.25 3.78zm-13.71-69.65a3.42 3.42 0 0 0 1.19-2.95l-3.5-34.63 21.78 22.1a3.41 3.41 0 0 0 4.25.49c10.56-6.67 22.08-13.82 29.43-18.23-3.59 8.1-9.66 21-15.35 32.84a3.41 3.41 0 0 0 .86 4.08l25.59 21.78-33.2-.48c-2.92 0-3.27 0-13.9 32.24l-9.91-33.63a3.41 3.41 0 0 0-2.86-2.42l-25.71-3.19zM332.61 364.01a3.413 3.413 0 0 0 2.79-6.23c-28.24-12.62-45.11-44.2-45.28-44.52a3.41 3.41 0 0 0-6 3.17c.68 1.39 18.06 33.95 48.49 47.58zM307.47 370.72a3.38 3.38 0 0 0-3.75 3c-.19 1.82-4.61 44.66-4.43 53.3a3.41 3.41 0 0 0 3.41 3.34h.07a3.41 3.41 0 0 0 3.34-3.48c-.17-8.22 4.35-52 4.4-52.46a3.41 3.41 0 0 0-3.04-3.7zM367.13 186.69h.26a3.41 3.41 0 0 0 3.15-3.65c-1-13.78 7-25 7-25.11a3.41 3.41 0 0 0-5.52-4c-.39.53-9.54 13.28-8.32 29.63a3.41 3.41 0 0 0 3.43 3.13z"/>
  <path class="d" d="M546.74 1068.15c-1.19-6.25-3.61-15.21-6.42-25.59-5.09-18.86-11.43-42.33-11.43-54.79 0-8.18 1.07-38.05 2.21-69.67 1.6-44.41 3.41-94.74 2.9-102.82-.36-5.84-3-32.2-6.15-62.73-4.21-41.37-9.44-92.86-10.91-113-2.36-32.26-16.2-45.35-26.31-54.91-1.29-1.22-2.52-2.39-3.68-3.54a48.34 48.34 0 0 0-9.39-7.39c-4.21-2.67-7.53-4.77-14.71-16.69-12.14-20.15-55.15-44.53-57-45.56a3.37 3.37 0 0 0-2.68-.27 21.4 21.4 0 0 0-5.74-6.74c-6.12-4.59-16.05-26.07-19.95-35.3 6.5-21.57 16.06-47.64 19.91-56.28 3.16-2.85 25-7.2 43.92-9.65.82-.14 20.11-3.53 36.42-9.54 17.75-6.54 22.94-30.84 21-46-1.76-13.52-5.26-26.54-7.66-31.93-1-2.25.61-8.76 2.7-13.67 1-1.43 4-6.09 2.8-11.26-.54-2.45-2.25-5.91-7.31-8.43a30.48 30.48 0 0 0-5.54-2v-.75l.19-.07c12.38-6.19 14.71-15.31 16-20.2l.3-1.14a8 8 0 0 0-2.69-8.67 26.44 26.44 0 0 0-3.85-2.74c-.64-.39-1.29-.8-1.91-1.22-4.93-3.39-12.69-9.84-15.1-13 .84-.3 2-.62 2.81-.85 3.52-1 7.51-2.11 9.91-5.1 4-5 4.83-10.27 2.75-17.57-.57-2-2.32-8.1-24.24-24.8-5.3-4-10.19-7.07-14.92-10-3.51-2.18-6.83-4.24-10.36-6.71a12.57 12.57 0 0 1-1.35-1.16c54.59-27.2 88.18-64.62 88.52-65 .08-.09.15-.18.22-.28.62-.86 15-21.15 11.53-35.4a15.61 15.61 0 0 0-8.48-10.56c-19.89-10.19-56.88 14.08-58.38 15.07l-10.91 6.85c-2 1-17.09 8.49-35.5 17.8-10-11.39-59.85-68.31-72-82-16.59-18.66-66.52-11.41-67-11.34-9.16 1.37-70.54 21-82 26.76a71.76 71.76 0 0 1-12.47 4.56c-5.92 1.74-11.51 3.38-16.78 7.82-8.35 7-55.65 66.81-67.67 86.55-11.76 19.32-15.9 52.56-18.39 82.52-2.21 26.54 40.6 86.31 42.42 88.85a3.35 3.35 0 0 0 2.72 1.41l15.09 18.35c.86 2.35 4.18 11.25 7.88 18.76a15.67 15.67 0 0 0-8.47-2.55c-1.1.06-2.72.24-4.7.47-7.12.81-19 2.16-26.45-.31-11.55-3.85-37.19-1.35-48.93 10l-1.36 1.3c-41.9 40.08-64.56 81.2-67.34 122.22-4.34 63.92-3.61 80.26 3.89 87.42a28.43 28.43 0 0 1 3 3.63c4.65 6.32 11.51 15.65 35.68 15.65h.27l-.76 1.12c-11.1 23.3-19 40.21-20.26 45.62-.36 1.6-1.6 5.48-3.18 10.39-6.84 21.38-21.08 65.87-18.5 93 1.15 12.19 2.87 32.54 4.69 54.09 3.1 36.7 6.6 78.3 8.4 92.16.64 5 1.72 12.19 3 20.72 4.35 29.09 10.92 73.06 10.05 93-.77 17.77 4.76 58 8.43 84.67 1.73 12.59 3.23 23.46 3.23 26.07 0 3.4 1.39 13.82 3.15 27 2.76 20.64 6.53 48.9 5.68 57.07-1.39 13.38-12.37 76.74-12.48 77.38a3.41 3.41 0 0 0 2.78 3.94 3.51 3.51 0 0 0 .59 0 3.41 3.41 0 0 0 3.36-2.83c.45-2.62 11.12-64.24 12.54-77.84.94-9-2.74-36.53-5.7-58.68-1.59-11.91-3.09-23.16-3.09-26.11s-1.19-11.71-3.29-27c-3.63-26.35-9.12-66.22-8.4-83.35.9-20.58-5.73-64.93-10.12-94.29-1.27-8.47-2.34-15.66-3-20.59-1.78-13.71-5.28-55.22-8.37-91.85-1.82-21.56-3.53-41.93-4.69-54.16-2.44-25.76 11.5-69.35 18.21-90.3 1.75-5.47 2.91-9.08 3.33-11C32.4 618.1 42.71 596.42 51 579c5.49-11.53 10.22-21.5 12.21-26.35 4.75-11.61 42-59.24 58.87-71.91 8.75-6.56 32.46-11.79 56.63-14.74 15.6 0 89.31 42.22 110 58.34 19.7 15.32 42.22 18.34 43.17 18.46h.29a3.23 3.23 0 0 0 .55.37l7.1 2.91a3.36 3.36 0 0 0-.1 1.15 28.12 28.12 0 0 0 8.57 16.38 3.37 3.37 0 0 0-.9 2.66 29.39 29.39 0 0 0 7.11 15.31 3.38 3.38 0 0 0-.62 2.34 30 30 0 0 0 10.3 17.57 3.32 3.32 0 0 0-.31 1.88 34.18 34.18 0 0 0 10.38 19.11 3.27 3.27 0 0 0-.5 1.55c-.33 8 4.64 13.61 8.64 18.16.93 1.06 1.85 2.1 2.67 3.15a9.52 9.52 0 0 0 1 1 3.33 3.33 0 0 0-.52 1.87c0 .42.63 10.38 8.19 16.71.28.23.6.39.89.61a3.38 3.38 0 0 0-.15 1.24 26.38 26.38 0 0 0 10.24 18c-1.16 2.67-.27 6.94 1.28 10.2a22.17 22.17 0 0 0 3.55 5.28 3.4 3.4 0 0 0-.12 1.35c.08.77 1.71 14.51 10.58 22.79a3.31 3.31 0 0 0-.13.94 29.68 29.68 0 0 0 8.36 17.05 3.32 3.32 0 0 0-.35 2 53.82 53.82 0 0 0 6.01 16.5 3.39 3.39 0 0 0-1.82 3.41 61.29 61.29 0 0 0 5.84 18.61 3.36 3.36 0 0 0-2.28 3.61 62.6 62.6 0 0 0 6.57 19.68 3.37 3.37 0 0 0-2.9 3.43 47.45 47.45 0 0 0 5.12 18.8 3.21 3.21 0 0 0-.52.1 3.41 3.41 0 0 0-2 4c0 .2.05.51.09.9.84 8.75 3 14.94 6 19.3a3.26 3.26 0 0 0-.24.79c0 .49-.91 10.34 3.46 18.61-1.28 3.36-3 10.76 1.68 19.94.15.3.33.54.5.83a3.28 3.28 0 0 0-.5.63c-2.55 5-4.3 16.49 7 24.35-2.92 4.71-3.28 11.74-.67 16.58a10.7 10.7 0 0 0 8 5.7c1.64 3.18 5.81 8.08 15.93 8.08 11.89 0 16.48-12 17.25-18.36v-.1c1.69-1.9 5-7.17 3.7-18.62-.32-2.89-1-6.49-2.66-9.06 4-9.61.43-25.31-.43-28.74a78.71 78.71 0 0 0-3.44-24.92 42.12 42.12 0 0 0-2.58-22.43c1.64-13.58-1.47-20.64-3.23-23.42.86-9.27-3.34-17.27-5-20 .44-10.11-3.76-23.55-5-27.35 2.47-9.25-1.66-16.73-3.72-19.7 1.81-10.63-.87-21.51-1-22a3.41 3.41 0 0 0-1.69-2.17 3.37 3.37 0 0 0-2.32-.27 39.27 39.27 0 0 0-7-20.21c1.32-10.37-2.31-16.5-4.4-19 .94-12.17-3.4-17.8-5.89-20-.87-6.53-2.42-11.82-4.52-15.41a37.28 37.28 0 0 0-5.14-22.57c-.57-7.9-3.26-11.64-5.9-15.21-.4-.54-.81-1.13-1.22-1.72a31.1 31.1 0 0 0-9.5-23.44c.39-7.25-1-10.4-2.67-14.23l-.29-.64a7.57 7.57 0 0 0-2.86-3.26 3.26 3.26 0 0 0 0-.64c-.35-2-2.12-11.29-4.73-15.78a26.4 26.4 0 0 0-3.54-13.78c13.68 8.73 34.34 23.22 41.64 35.33 8 13.3 12.13 15.91 16.9 18.94a41.86 41.86 0 0 1 8.22 6.45c1.2 1.2 2.48 2.42 3.81 3.68 9.81 9.28 22 20.83 24.19 50.45 1.48 20.23 6.72 71.77 10.93 113.19 3.1 30.46 5.77 56.77 6.13 62.47.48 7.75-1.32 57.9-2.91 102.15-1.19 33.06-2.22 61.62-2.22 69.92 0 13.37 6.2 36.32 11.67 56.57 2.65 9.82 5.16 19.1 6.3 25.09 3.49 18.33 10.15 67 8.47 100.69s-7.6 88-7.66 88.5a3.41 3.41 0 0 0 3 3.76h.37a3.41 3.41 0 0 0 3.39-3c.06-.55 6-55.08 7.69-88.9 1.75-34.28-5.01-83.75-8.55-102.34zM423.18 608.22c1.65 6.46 4.28 10.09 5.8 11.77a7.24 7.24 0 0 0-1.14 4.44c.51 6.13 6.76 14.05 7.47 14.94a3.29 3.29 0 0 0 .73.61 30.25 30.25 0 0 0-.4 6.25c.13 4.92 3.93 8.92 6.55 11.14-.08.24-.19.44-.26.69-2.26 8 5.68 16.37 6.68 17.37a12.43 12.43 0 0 0-1 5.38c.17 6.9 4.28 13 6.54 15.78a13.18 13.18 0 0 0-1.06 11.1l4.46 12.43a5 5 0 0 0-.64 1.76c-.46 3.7 2.13 16 2.93 19.7a3.26 3.26 0 0 0 .23.55 4.44 4.44 0 0 0-.3 1.71c0 3.25 2.73 12.36 3.56 15.08a3.22 3.22 0 0 0 .19.38c-4.15 6 1.39 21.73 5.34 31.16l4.3 22.92 1.6 18.6a3.37 3.37 0 0 0 3 3 3.3 3.3 0 0 0 0 .43l2.19 21.32a3.4 3.4 0 0 0 2.1 2.8l3 20.15c-.4 2.81-.28 8.45.06 20.3a3.39 3.39 0 0 0 1.76 2.79 19.88 19.88 0 0 0-3.32 1.52 21.32 21.32 0 0 0-6.41-8.75c-.11-5.85-2.83-16.14-3-16.59a3.36 3.36 0 0 0-1.48-2c-.45-3.66-1.39-10.92-2.72-18.69l-3.32-19.47c.24-1.94.88-8.82 0-21.36 0-1.07-.22-15.63-3.4-26.45.4-4.15 0-10.28-1.7-19.34 0-2.31-.12-14.52-5.77-25.28-.61-2.08-4.24-14.18-7.43-20.32.8-2.56-.15-5.39-1-7.78-.17-.5-.34-1-.49-1.5a79.8 79.8 0 0 0-4.72-11.28c.75-3.31 1-10.85-7.52-20.81.41-8.17-4.34-20.27-4.92-21.71a3.31 3.31 0 0 0-1.26-1.48c-.76-5.17-6.81-15-9.52-19.26.06-6.9-5.54-17.57-6.73-19.77a3.37 3.37 0 0 0-1.88-1.56 37.42 37.42 0 0 0-11-13.76 3.36 3.36 0 0 0 2.53-3.23c0-7.14-7.6-15.71-9.51-17.74a12.07 12.07 0 0 0 .22-6.61c-.09-.37-.23-.73-.35-1.09 5.72-5.09 9.58-16.35 12-26 2.27 5.53 4 8.44 5.26 10a11.13 11.13 0 0 0 .14 1.56 50.08 50.08 0 0 0 4.85 14.41c-.08.42-.15.85-.2 1.32-1 9.86 8 20.45 8.34 20.89a3.17 3.17 0 0 0 .33.25 15.47 15.47 0 0 0 .29 7.33zm9.1-8.84a5.12 5.12 0 0 1 .38.51c.68 1 1.36 1.95 2 2.84 2.18 3 3.84 5.23 4.45 10a33.36 33.36 0 0 0-5.17 2.59 21.46 21.46 0 0 1-4.17-8.79c-.86-3.36-.24-5 .18-5.25a2.47 2.47 0 0 0 2-1.55 3 3 0 0 1 .33-.35zm23.94 192.42c-10.43-3.83-14.84-17-16.48-23.93a17.6 17.6 0 0 0 4.15 2.51 107.58 107.58 0 0 0 11.29 4.36c1.71 9.86 1.46 14.82 1.05 17.07zm-19.8-82.42a70.07 70.07 0 0 1 3.92 9.47c.17.56.36 1.12.56 1.69a17.58 17.58 0 0 1 .91 3.34c-.64.22-2.81.65-9-.43-9.58-1.69-13.76-11.38-15.47-17.51 4.28 2.06 10 3.49 17.55 3.49.52-.05 1-.05 1.53-.05zm-4.75 20.78a45.19 45.19 0 0 0 7.67.8 16.07 16.07 0 0 0 3.56-.39 129.81 129.81 0 0 1 5 13.45c-13.57-1.56-18.42-9.8-20.14-15a22.82 22.82 0 0 0 3.91 1.12zm18.7 20.83a49.81 49.81 0 0 1 4.14 16.39c-1.8-.66-4.36-1.67-7.93-3.22-5.69-2.48-9.24-10.78-10.94-16.58a37.13 37.13 0 0 0 14.73 3.4zm17.52 149.68a21.37 21.37 0 0 0 4-.55s4.7 3.11 5.67 7.89c-2.38-.51-7.14-3.36-9.67-7.34zm-4.2-38.52c.88 5.41 1.56 10.38 2 13.73a12.75 12.75 0 0 1-6.49-4c-3.23-3.69-4.29-8.92-4.61-12.74a21.91 21.91 0 0 0 9.12 3.01zm-4.74 26.84a19.25 19.25 0 0 1-2.27-10.17 21 21 0 0 0 11.5 4.3 94.84 94.84 0 0 1 2 10.4c-3.06.73-8.38 1.03-11.21-4.53zm14.92 25a13.3 13.3 0 0 0 4.6 1 7.59 7.59 0 0 0 1.25-.1 5.65 5.65 0 0 0 3.72-2.19c3.52-2.91 6-3.73 7.35-3.87-.19 3.64-1.44 10.54-8.08 11.32-4.87.56-6.41-.52-6.76-.87a1.48 1.48 0 0 1-.41-1.13 3.39 3.39 0 0 0-1.73-3.45c.08-.26.08-.5.08-.75zm2.11-122.65l6-3.23a26.68 26.68 0 0 1 3 13.72l-6.09 4.87zm5.53 39.04l-1.37-15.94 7.06-5.67c1 2.86 2 8 1.1 16zm10.52 70.05a3.29 3.29 0 0 0-.26.33 3.31 3.31 0 0 0 .16-1c-.2-7-.32-14.75-.22-17.88.83-.53 2-1.31 3.67-2.46 1.15 6.35 1.83 14.77 0 19.57a6.61 6.61 0 0 0-3.35 1.45zm-.92-26.32L489 859.94l3.51-4.1a71.68 71.68 0 0 1 1.71 16.13zm-.22-26.84l-4.52 5.27-1.64-16 5.26-4.32a35.37 35.37 0 0 1 .9 15.05zm-17-62.6c-3.74-9.72-6-19.38-5-21.24a20.62 20.62 0 0 1 7-3.91c1.49 4.84 4.12 14.51 4 21.92zm-7.21-40.29a29.62 29.62 0 0 1 6.53-3.81 17.09 17.09 0 0 1 2.18 11.94 33 33 0 0 0-6.08 2.43 95.21 95.21 0 0 1-2.63-10.56zm4.48-25.41a50.93 50.93 0 0 1 .23 14.94 48.88 48.88 0 0 0-5.54 2.76c-1.16-5.72-2.15-11.62-2.14-13.61.9-.93 3.92-2.56 7.44-4.04zm-15.78-41.59a3.1 3.1 0 0 1 1.36-.74c1.32 1.81 3.52 6.16 2.46 13.74l-.62.72c-1.74-2.43-4-6.37-4.12-10.45a4.37 4.37 0 0 1 .92-3.27zm-1.94-6.77c-2-2.07-5.88-7.33-4.93-10.7.62-2.22 1.79-2.82 2.79-2.85 1.15 1 4 4.53 3.6 13a10.69 10.69 0 0 0-1.47.54zm-7.18-18.75c-1.8-1.6-3.73-3.86-3.79-5.8-.14-5 .72-7 1.57-7.86 1 1 3.3 4.49 4.64 12.48a9.6 9.6 0 0 0-2.42 1.17zm-5.37-19.87a9.94 9.94 0 0 0-1.63 1.3c-2.06-2.89-4.43-6.93-4.64-9.42 0-.95 2.92-3 6.61-4.62a31.18 31.18 0 0 1 3.23 11.93 5.55 5.55 0 0 0-3.57.81zm-16 50.22a44.36 44.36 0 0 0-3.53-14.74 10.29 10.29 0 0 0 1.77.22 7 7 0 0 0 .94-.1c1.49 4.13 3.69 11.24 3.7 16a10.12 10.12 0 0 1-2.81-1.38zm-89.21-145.27c-.11-1.3-.27-3.08-.52-5.25 11 2.65 21.65 7.62 22.05 10.25.24 1.56.47 2.92.68 4.11zm-9.3-45.05h.18s15.84-2.75 17.34 4.2c1.79 8.28 1.92 10.6 1.93 10.95a3.37 3.37 0 0 0 .12 1.14c-4.34-2.25-9.83-2.79-13.68-2.57a3.32 3.32 0 0 0-1.55.52 129.78 129.78 0 0 0-4.34-14.24zm-42.87-53.8a3.27 3.27 0 0 0-.73.19l-4-4.12a11.61 11.61 0 0 1 5.06 2.77 5.72 5.72 0 0 1 .82 1.13c-.63 0-1.04.02-1.15.03zm19.17 12.82c-.91-.07-1.73-.11-2.38-.15s-1.09 0-1.42-.08a3.4 3.4 0 0 0-3.42.74l-6-6.28c4.49.48 10.57 1.88 13.22 5.76zm16.29 14.18a39.61 39.61 0 0 0-8.39-.71 3.33 3.33 0 0 0-2 .79c-2.35-2.48-4.75-5-7.14-7.5 6.92.49 14.35 1.98 17.52 7.42zm15.8 19.42a40.91 40.91 0 0 0-9.51.69 3.34 3.34 0 0 0-1.38.64 51.84 51.84 0 0 0-8.84-13.84l-.61-.65c5.85.53 17.02 2.95 20.33 13.16zm38.67 65.22c.62 3.13 1.25 9.5-2.57 13.6a20.17 20.17 0 0 0-2.32-8.5 3.34 3.34 0 0 0 1.37-.87c.85-.94 2.2-2.48 3.51-4.23zm-8-1c-.34-1.54-.84-4.07-1.43-7.87a7.15 7.15 0 0 0-.62-1.92 8.19 8.19 0 0 0 1.69-2.69 6.86 6.86 0 0 1 1.43-2.33c1.94.39 4.18 5.43 4 7.45-.2 1.14-2.62 4.53-5.12 7.4zm-6.56-15.33l-.19.41a35.16 35.16 0 0 0-4.73-2.81 3.33 3.33 0 0 0 .42-1.56c0-.35 0-3.71-1.75-12.85a11.76 11.76 0 0 0-.45-1.71 6.73 6.73 0 0 1 4 1.49c2.56 2.06 4.07 6.25 4.37 12.1a3.34 3.34 0 0 0 .42 1.42 16.49 16.49 0 0 0-2.14 3.55zm-26.2-21c.12 0 12.16-.38 13.24 5.46 1 5.6 1.42 8.82 1.56 10.39A101.24 101.24 0 0 0 336.7 525a3.37 3.37 0 0 0-2.3.3c-.55-3.88-1.28-8.3-2.25-13a3.06 3.06 0 0 0 .48.08zm41.72 57c3.39 2 10.32 6.95 11.56 11.85a5.26 5.26 0 0 1-.26 3.5c-.9-.15-2.86-.84-6-3.78a3.33 3.33 0 0 0-1.7-.79 24 24 0 0 0-5.27-9.58 18.18 18.18 0 0 0 1.62-1.16zm15.3 33.18a22.59 22.59 0 0 0-4.69-11 8.92 8.92 0 0 0 1.07.07 7.19 7.19 0 0 0 1.77-.22c3.05 3.37 7.18 9.09 7.18 12.54a3.21 3.21 0 0 0 .12.58 21.28 21.28 0 0 0-4.87-1.92 3.18 3.18 0 0 0-.62-.01zm11.84 16.67a18.09 18.09 0 0 1-9.17-8.52 27 27 0 0 1 9.13 8.56zm-4.36 6a3.31 3.31 0 0 0-.46-.82c.39.21.77.41 1.15.6a3.33 3.33 0 0 0-.73.28zm10 2.23c2.38 4.72 5 11.22 5 14.58a19.65 19.65 0 0 1-5.27-2.44 38.32 38.32 0 0 0-5.75-13.24 23.41 23.41 0 0 0 5.96 1.16zm5.61 21.45a6.94 6.94 0 0 0 2.13-.35 91.43 91.43 0 0 1 6.25 11.7 27.79 27.79 0 0 1-3.91-1.88 3.3 3.3 0 0 0-1.72-.41 35.8 35.8 0 0 0-3.25-9.09c.1.06.27.09.44.09zm6.1-77.11a42.93 42.93 0 0 1-2.57-8.93c-.31-1.81.42-2 .9-2.17 1.34-.39 2.87.22 3.08.71l.29.66a18.69 18.69 0 0 1 2.16 8.81 8.4 8.4 0 0 0-3.86.92zm-3.64-17.63a8.55 8.55 0 0 0-2.29 1.11c-1.35-2.7-3.08-6.86-4.59-10.93a13.7 13.7 0 0 1 4.72-2c1.12 1.83 2.54 6.89 3.49 11.5a9.59 9.59 0 0 0-1.37.31zm-8.09-16.93c.14-1 .21-1.52.21-1.56a50.1 50.1 0 0 0 .06-9.69c2 1.81 3.86 4.8 4.49 9.68a17 17 0 0 0-4.8 1.56zm68.28-150c-15.72 5.79-35 9.19-35.08 9.2-30.3 3.94-46.79 8.43-49 13.35-.48 1.07-1.06 2.43-1.71 4-9.62-12.33-19.84-30.13-21.92-37.21 7.49 2.27 22.3 2.93 33.9 3.07 4.44.05 26.74.23 29.62-1.67a3.73 3.73 0 0 0 1.6-2.89c.06-2.06 3.4-47.27 6-79.09 2.14-27.64 34.25-49.64 38.95-52.64 2.58 2.26 5.24 4.31 7.26 5.79a33.61 33.61 0 0 0-12.79 6c-10.44 7.83-23.73 21.72-25.26 26.36v.16a3.33 3.33 0 0 0 0 .34 3.4 3.4 0 0 0 0 .35 3.35 3.35 0 0 0 0 .45v.1c.11 1.2 2.74 29.42 14.17 39.31 5.88 5.08 7 11 7.95 15.83.62 3.25 1.17 6.06 3.37 7.66a25.52 25.52 0 0 0 15.38 4.73 36.46 36.46 0 0 0 4.44-.3c.9 12.67-3.43 32.13-16.92 37.1zm-32.82-154.88a22.46 22.46 0 0 0 11.21 2.82c4.24 0 8.08-3.13 11.79-6.17 2-1.67 4.35-3.56 5.68-3.88a8.34 8.34 0 0 1 4.6.39c-3.18 1-6.27 2.31-6.69 5.67-.25 2 1.3 4.57 3.6 7.19-5.58 3.75-21.49 15.32-31.77 31.62a209.62 209.62 0 0 1 1.58-37.64zm48.57 111c-5.95.71-11-.3-14.64-2.92a17.82 17.82 0 0 1-.92-3.66c-1-5.21-2.52-13.07-10.18-19.7-5.56-4.82-8.89-16.8-10.56-25.92 6 4.16 16 9.24 31.22 11.87-1.51 4.42-3.18 11.15-1.27 15.45s4.61 14.27 6.35 24.88zm-1.3-51.13a7 7 0 0 1-.82 4.36c-15.27-2.37-25-7.37-30.47-11.19 5.87-.56 20-.75 27.59 3 2.15 1.11 3.39 2.38 3.7 3.83zm-23.6-14l4.65-2.39a32.7 32.7 0 0 1 5.16-2.07 22.35 22.35 0 0 1 .81 5.17 81.61 81.61 0 0 0-10.59-.71zm16.44-6h.29l-.27.15zm10.89-15.87l-.33 1.25a22.94 22.94 0 0 1-4.48 9.78 3.37 3.37 0 0 0-3.52-2.44c-.4 0-9.91 1-17.45 4.84l-4.47 2.3a125.34 125.34 0 0 1 13-11.46c7.73-5.8 14.7-5.63 17.23-5.31a1.39 1.39 0 0 1 .02 1.04zm-15.3-180.49c9.73-6.45 38-21.68 51.57-14.73a9 9 0 0 1 5 6.09c2.24 9.22-6.6 24.39-10.33 29.67-2.22 2.46-34.67 37.64-86.73 63.46a10.18 10.18 0 0 1 .1-4.1 3.56 3.56 0 0 0 .12-.7c1.35-19.43-5.55-28.42-5.84-28.79a3.42 3.42 0 0 0-3.11-1.27c-17.34 2.21-40.55 10.82-62.47 20.53zM301.41 178.97c24.75-17.15 50.94-35.22 58.78-40.38 6-3.95 22.63-12.8 41-22.31zm67.92-132.4a3.41 3.41 0 0 0 2.32-5.3c-.08-.12-.89-1.29-2.28-3.19 13.1 14.91 29.61 33.73 41.2 47l-2.44 6.09c-5.15-9-15-25.13-22.89-31.78-7-5.85-15.56-9.27-21.23-11.06a19.39 19.39 0 0 1 5.32-1.76zM98.6 210.22c1.47-17.65 4.92-59 17.43-79.53 11.44-18.8 58.36-78.25 66.24-84.88 4.17-3.51 8.87-4.89 14.31-6.49a78.55 78.55 0 0 0 13.59-5c10.37-5.18 71.71-24.87 80-26.12 9.31-1.39 33.45-3 49.41 2.34 1.18 2.17 4.05 6.65 11 14.84 5.65 6.63 10 12.29 12.6 15.84-3.2 1.22-7 3.42-9 7.29a3.41 3.41 0 0 0 2.39 4.88c.14 0 14.42 2.95 24.25 11.21 10 8.42 24.62 35.81 24.77 36.09a3.41 3.41 0 0 0 3 1.81h.18a3.41 3.41 0 0 0 3-2.14l3.82-9.54 6.31 7.2c-26.22 13.31-56.61 29-65.5 34.89-15.33 10.09-100.51 69.35-108.51 74.94a28.58 28.58 0 0 0-14.26 2.08c-13.4 5.74-24.89 16.3-25.46 28.81a3.34 3.34 0 0 0-1.56.61l-68.83 52.31c-13.16-18.73-40.76-62.52-39.18-81.44zm59.08 104.16l-14.79-18 66.21-50.32a24.68 24.68 0 0 0 .83 2.45c6.21 15 19.74 40.8 40.58 45 11.66 2.33 21.54 4.12 29.19 4.12 5.64 0 10.08-1 13.13-3.42 3.93-3.16 5.23-8.35 5.63-12.15.48-4.62-.11-11-2.57-14a3.38 3.38 0 0 0-4.73-.47 3.45 3.45 0 0 0-.55 4.79c1.45 1.88 2.32 13-2.05 16.47-5.25 4.21-24.18.43-36.71-2.07-17.73-3.55-29.92-27.14-35.61-40.89-7.2-17.39 17.27-28.47 20.08-29.68a22 22 0 0 1 11.39-1.48c-9 3.68-20.65 9.55-22.49 14.84a15.18 15.18 0 0 1-2.4 4.24c-1.89 2.6-4.25 5.83-1.07 12.45 2.37 4.94 6.34 13.21 6.44 15-.36 2.84 2.17 8.1 5.75 12a21.82 21.82 0 0 0 16.3 7.3h1.11a3.41 3.41 0 0 0 3.25-3.56 3.48 3.48 0 0 0-3.56-3.25c-11.19.52-15.75-10.23-16-11.86.21-3-2-8-7.16-18.69-1.34-2.78-1.09-3.12.51-5.32a22 22 0 0 0 3.33-6c1.43-3.8 22.46-12.78 27.38-13.95.08 0 .15-.06.24-.08a4.25 4.25 0 0 0 1.16-.49 3.27 3.27 0 0 0 .41-.33 3.32 3.32 0 0 0 .5-.58c.06-.09.15-.14.2-.23s0-.14.07-.21a3.35 3.35 0 0 0 .23-.72 3.31 3.31 0 0 0 .1-.55v-.19a3.26 3.26 0 0 0-.09-.43 3.31 3.31 0 0 0-.14-.69 7.82 7.82 0 0 0-.57-1l43.3-27.2c1.61-.92 80.64-45.88 123.33-52.51 1.52 3 4.27 10.17 3.48 22.23a17.39 17.39 0 0 0 7.4 18.24c3.68 2.58 7.23 4.78 10.67 6.91 4.59 2.85 9.34 5.79 14.38 9.63 18.67 14.23 21.42 19.86 21.82 21.25 1.47 5.12 1.05 8.22-1.52 11.43a3.85 3.85 0 0 1-1 .8 3.36 3.36 0 0 0-1.5-2.39c-.58-.37-5.86-3.59-11.81-2.15-2.84.68-5.54 2.89-8.41 5.23-2.52 2.06-5.66 4.62-7.47 4.62-3.34 0-10.23-1.32-10.23-5.4 0-6.16.25-6.49 1.31-7.9a3.41 3.41 0 0 0-5.46-4.09c-2.41 3.21-2.68 5.27-2.68 12a10.35 10.35 0 0 0 .23 2.07 3.15 3.15 0 0 0-.15.35c-.2 1-4.94 24-1.81 56.58a49.85 49.85 0 0 0-3.09 13.48c-2.11 26.03-5.11 65.77-5.86 76.7-9.78.92-48.7 1.2-57.68-2.61-4.2-1.79-6.27.26-7 1.23-5.43 7.48 16.9 39.95 25.24 50.22-6.93 18.19-17.68 49.56-21.24 66.71a3.412 3.412 0 0 0 6.68 1.39c.6-2.9 1.43-6.25 2.4-9.85 4.64 10.15 12.5 25.78 18.79 30.5 7.26 5.45 7.93 18.3 7.18 25-1.1 9.95-5.76 30.52-11.93 37.49a42 42 0 0 0-10-8.37c4-8 1-17.74.8-18.28a3.36 3.36 0 0 0-2.51-2.23 7 7 0 0 0 .33-1.6c.32-4.44-3-13.39-9.5-14.68h-.57c-.54-7.47-2.82-12.91-6.83-16.13a13.49 13.49 0 0 0-7.89-3s0-.09.05-.14c.12-.58.42-2.12-2-13.33-1-4.73-4.38-7.44-8.52-8.86a3.2 3.2 0 0 0 0-.46c-1.82-9.4-8.15-14.84-15.07-17.81a3.16 3.16 0 0 0 0-.42c-2-9.67-10-13.53-17-15.14a3.31 3.31 0 0 0-.08-1.86c-2.88-7.74-11.35-10.53-17.94-11.52a12.31 12.31 0 0 0-3.2-6.38c-4.94-5.19-13.41-5.78-15.38-5.85a49.47 49.47 0 0 0-13.38-16.95c-.86-3.86-4-15.33-12.23-22.82-6.43-5.86-18.71-11.87-28.59-16.7-4.45-2.18-8.31-4.06-10.2-5.27-6.61-4.21-8.57-7.5-9.15-9.09-1.64-4.51-17.85-12.55-30.14-15.09-5-7.3-11.29-24.79-11.36-25a3.41 3.41 0 0 0-.54-1.03zM7.1 511.21l.36 2.06-.51 2.72c.04-1.53.09-3.13.15-4.78zm76.19-9.83l10.6-1.73c-3.87 4.46-7.79 9.15-11.56 13.85zm146.81-37.59c25.43 2.1 41 28.19 41.12 28.46a3.41 3.41 0 0 0 .89 1l-6 7.91c-21.54-13.18-49.92-29-69.37-36.91 12.82-.96 24.76-1.16 33.36-.45zm62.93 55.17c-1-.74-2.12-1.6-3.42-2.52l.83-10.06 17.45-9.22a1.71 1.71 0 0 0-.8-3.21h-13.14l-1.31-18.88a1.71 1.71 0 0 0-2.92-1.07l-13.08 13.38-.14.16-.11.15c-3.46-5.44-19.59-28.5-45.73-30.66-4-.33-8.82-.46-14.29-.41a1.68 1.68 0 0 0-.35-.74l-6.54-7.39a1.69 1.69 0 0 0-1.55-.55 1.71 1.71 0 0 0-1.3 1l-3.13 7.39a1.71 1.71 0 0 0-.11.69 359.88 359.88 0 0 0-53.46 6.74l2.49-9.42a1.7 1.7 0 0 0-2.62-1.84l-14.57 10-11.8-9.93a1.71 1.71 0 0 0-2.78 1.61l3.24 17.69a35.77 35.77 0 0 0-5.81 3.42c-5.2 3.9-12.49 11.23-20.24 19.89l-17.95-7.55 7.32-17.65a1.71 1.71 0 0 0-2.78-1.87l-10.08 10-2.2-5.79a1.73 1.73 0 0 0-1.71-1.1 1.7 1.7 0 0 0-1.55 1.31l-3.63 15.37-7.25 11.7a1.71 1.71 0 0 0 1.45 2.6h9.23l9.26 16.73c-10.16 13.06-18.63 25.3-21.06 31.15-1.43 3.49-4.53 10.13-8.18 17.83-23.58.89-29.23-6.66-33.74-12.78a33.47 33.47 0 0 0-3.74-4.53c-3.09-3-4.53-10.34-4.44-27.28a1.69 1.69 0 0 0 .75.19h1.82l1.68 12.73a1.71 1.71 0 0 0 1.47 1.47h.23a1.71 1.71 0 0 0 1.57-1l2.8-6.63h5.78a1.71 1.71 0 0 0 1.39-2.7l-7.32-11.39 2.7-16.61a1.71 1.71 0 0 0-3-1.3l-5.37 7.17-2.5-2.29a1.63 1.63 0 0 0-1.28-.37c.44-9.47 1.12-20.67 2-34q.25-3.75.75-7.51l1.83 16a1.71 1.71 0 0 0 1.58 1.51h.11a1.71 1.71 0 0 0 1.66-1.29l3.9-15.61h8.94a1.71 1.71 0 0 0 1.29-2.82l-9.68-11.16 4-17.56a1.71 1.71 0 0 0-3-1.39l-4.3 5.9c9.76-28.06 29.18-56.13 58.13-83.82l1.38-1.32c8.29-8 26.56-10.91 37.61-9.39l-4.62 2.58-15.78.28a1.7 1.7 0 0 0-1.3 2.78l4.78 5.92-12.05 7.78a1.71 1.71 0 0 0 1.13 3.13l18.72-2.22 5.17 3.36a1.71 1.71 0 0 0 2.23-.33l6-7.07 14.69-6.1a1.71 1.71 0 0 0-.44-3.27l-11.35-1.41v-3.73c6.89 1.53 15.32 1 22 .38l-2 9.52a1.71 1.71 0 0 0 2.43 1.88l16.41-8.23a3.43 3.43 0 0 0 2.58 1c10-.51 28.61 8.92 31.15 11.73 1.63 4.16 5.59 8.26 11.77 12.19 2.22 1.41 6 3.28 10.87 5.64 9 4.39 21.28 10.41 27 15.61 8 7.33 10.34 20.11 10.36 20.24a3.41 3.41 0 0 0 1.24 2.09 44.54 44.54 0 0 1 11.58 13.5l-28.31-8.54a1.7 1.7 0 0 0-1.32 3.12l15.82 8.78v12.29a1.71 1.71 0 0 0 1.71 1.71 1.72 1.72 0 0 0 .91-.26l11-6.95 11.12 4.85c8.38 8.65 22 22.75 32.84 34.32 13.06 13.93 17.42 46.73 18.61 58.59-7.18-1.61-22.29-5.91-35.63-16.32zm54.21 30.08l14 5.76a1.78 1.78 0 0 1 1.25 3.2 13.69 13.69 0 0 1 1.55 6.2c-11.5-2.44-15.49-10.82-16.8-15.14zm18.19 22.26a3.4 3.4 0 0 0 .91 2.42c4.54 4.88 5.33 8.28 5.27 10.17a21.83 21.83 0 0 1-16.72-15.74 32.55 32.55 0 0 0 10.54 3.17zm-3.2 16.3a31.27 31.27 0 0 0 11.26 3.53h.42a3.38 3.38 0 0 0 1.24-.29c5.93 5.4 7.5 9.76 7.79 12.38-13.15-3.24-18.53-10.71-20.71-15.6zm9.66 18.91a48.8 48.8 0 0 0 12.92 4.12 25.72 25.72 0 0 0 9.56 12.46 3.19 3.19 0 0 0-.4-.09c-14.23-.16-19.93-10.47-22.08-16.49zm9 20.41a30.25 30.25 0 0 0 13 2.92 3.4 3.4 0 0 0 1.3-.26 3.33 3.33 0 0 0 .41.87 31 31 0 0 1 4.78 11.85c-3.8.68-8.37.7-9.88-1.21-.9-1.13-1.89-2.27-2.91-3.42-2.97-3.46-5.83-6.77-6.64-10.75zm11.7 22.36a21.32 21.32 0 0 0 3.39.27 33.36 33.36 0 0 0 7.83-1 28.8 28.8 0 0 1 5.48 14.55c-4.6.07-8.31-1-11.1-3.35-3.81-3.24-5.11-8.08-5.54-10.46zm9.3 19.7a26.56 26.56 0 0 0 6.86.92 36.35 36.35 0 0 0 4.51-.29 3.35 3.35 0 0 0 1.3-.47c2.51 4.54 3.34 10.42 3.59 14.21-11.21-2.26-14.97-10.1-16.2-14.36zm19.5 21.68h.26a3.41 3.41 0 0 0 2.27-.86 3.38 3.38 0 0 0 .22-.29 10.85 10.85 0 0 0 4.23 1 7.58 7.58 0 0 0 1.71-.19l.2-.07c4.62 5.79 5.39 10.06 5.33 12.34-12.15.16-18.21-3.75-21.19-7.18a13.62 13.62 0 0 1-3.33-7.07 34.17 34.17 0 0 0 10.36 2.33zm36 108.54a3.38 3.38 0 0 0 .67.07 121.63 121.63 0 0 1 1.55 14.22c-9.55-3.11-14.11-15.12-16-22.33a25.17 25.17 0 0 0 13.83 8.05zm2.56 21.35a131.12 131.12 0 0 1 .18 13.89c-10-4.28-12.89-16.44-13.7-22.1a23.68 23.68 0 0 0 13.57 8.23zm.22 21.08l2.29 13.41c-7.51-1.71-11.9-8.4-13.43-20.16a24.53 24.53 0 0 0 11.19 6.77zm-1.88 56.64a14.13 14.13 0 0 0 1.56.88v.17a21 21 0 0 0 6.64 10 16.22 16.22 0 0 1 .51 4.73 13 13 0 0 1-3.07-1.65c-7.2-4.85-6.48-11.11-5.59-14.11zm6.88 32.94a10.85 10.85 0 0 1 .72-10.22s0-.11.08-.16a8.12 8.12 0 0 0 1.66.2 6.32 6.32 0 0 0 1.48-.21 7.93 7.93 0 0 0 1.8 3.06c1.77 1.88 4.44 2.89 7.86 3.11-1.54 2.47-4.61 6.17-9.41 6.46a4 4 0 0 1-4.14-2.22zm18 10.2c-4.22 0-6.7-1.12-8.18-2.32 6.6-2.64 10-8.91 11-11.06a3.42 3.42 0 0 0 2.18 1.39 21.42 21.42 0 0 1 5 1.85c-.86 3.59-3.42 10.11-9.98 10.11zm8.51-18.11c3.37-3 5-7.45 5.65-11.47v.09c.94 8.46-1 12-1.7 13a32.07 32.07 0 0 0-3.94-1.6zm-25.46-209.61c-1.15.53-2.18 1.06-3.11 1.59l-3.56-9.9a6.35 6.35 0 0 1 1.15-6.27l1.41-1.64a30.65 30.65 0 0 1 4.11 16.22zm-34.33-121.31a7.29 7.29 0 0 0-5 2.82c-2.37-3.11-6.43-9.63-5.92-14.75.13-1.33.49-2.28.94-2.55a3.39 3.39 0 0 1 2.26.07 24.93 24.93 0 0 1 7.72 14.41z"/>
  <path class="d" d="M469.47 1174.04c-8.47-23.36-30.76-49.34-34.23-53.31-5.6-14.49-24.79-43.55-33.91-46.64-.67-.23-1.29-.41-1.85-.58a14.2 14.2 0 0 0-1.58-.41c-.76-1.69 1-10.92 3.81-26.21l.89-4.77c7-37.72-23.93-74.5-35.58-88.35l-.52-.62a126.56 126.56 0 0 1-8.8-13c3.14-8.41 3.51-33 3.69-68.62.09-18.23.18-35.45 1.15-41.9a24.53 24.53 0 0 0-3-16.76 3.38 3.38 0 0 0 2.69-1.84c12.7-25.39 13.92-60.3 9.92-75.73-.4-1.53-.76-3.26-1.1-5.07a3.31 3.31 0 0 0 1.29 1.28 3.41 3.41 0 0 0 4.6-1.46c.53-1 13-25.41 7.48-39.48-.95-2.41-1.89-5.25-2.89-8.25-4.22-12.69-10-30.06-24.57-41-13.36-10-32.84-22.82-43.3-29.7-3.05-2-5.43-3.57-6.82-4.51-7.41-5-59.63-33.85-85-33.85s-85.64 31.63-104.33 45c-12.8 9.14-22.27 21.71-30.63 32.79-3.75 5-7.29 9.67-10.9 13.79s-7.77 9.25-12.09 14.54c-9 11.11-19.31 23.71-26.65 29.36-1 .78-2.1 1.56-3.21 2.37-11.55 8.34-27.38 19.77-15 57.69 7.54 23.1 9.06 32.16 10.17 38.77a61.49 61.49 0 0 0 3.54 13.7c4 10.34 9 17 16.7 27.16 2.7 3.57 5.78 7.63 9.31 12.5 13.31 18.37 57.24 110.34 57.77 111.44l67.49 122.16c.07.12 3.83 6 8 12.83a3.36 3.36 0 0 0-2.56 3.36c0 1 1 24 11.44 44.9 3.48 7 6.33 13.85 9.09 20.52 5.36 12.95 10 24.13 17.24 30.79 9.91 9.08 43.91 52.59 44.25 53a3.413 3.413 0 1 0 5.38-4.2c-.76-1-10.86-13.89-21.6-27h5l16.45 12.86a1.7 1.7 0 0 0 2.68-1.85l-3-9.75 11.51-2.61a1.71 1.71 0 0 0 0-3.34l-16.72-3.23-6.33-15.77a1.7 1.7 0 0 0-1.51-1.07 1.63 1.63 0 0 0-1.6.94l-3.57 7.08-6-1.57a1.71 1.71 0 0 0-1.79 2.68l4.36 5.77-1.57 7.24c-8.44-10.28-16.93-20.22-21.3-24.23-6.14-5.63-10.5-16.16-15.55-28.36-1.46-3.52-2.94-7.1-4.53-10.74 9 6.69 23.32 18.6 26.55 26.68a3.415 3.415 0 0 0 6.34-2.54c-5.44-13.6-32.5-32.31-33.65-33.1a3.38 3.38 0 0 0-3.47-.18c-.18-.37-.34-.73-.53-1.09-7.08-14.15-9.52-29.74-10.33-37.36a104.76 104.76 0 0 1 5.82 11.16c3.66 9.15 14.07 18.75 14.51 19.16a3.41 3.41 0 0 0 4.61-5c-.1-.09-9.71-9-12.78-16.66a93.36 93.36 0 0 0-4.87-9.6v-10l12.4-3.49a1.71 1.71 0 0 0 0-3.28l-16-4.8-3.09-22.37a1.71 1.71 0 0 0-1.49-1.46 1.68 1.68 0 0 0-1.79 1.07l-6.59 16.77-64-115.83 7.71-3.45 7.47 13.15a1.7 1.7 0 0 0 1.48.86h.3a1.71 1.71 0 0 0 1.38-1.41l2.72-17.08 15.89-8.55a1.71 1.71 0 0 0-.49-3.18l-18.84-3.61-2.82-19.82a1.71 1.71 0 0 0-1.35-1.43 1.68 1.68 0 0 0-1.8.79l-9.62 15.89-15-2.9a1.67 1.67 0 0 0-1.67.69c-14.25-29.07-35.58-71.51-44.5-83.82-3.56-4.92-6.67-9-9.39-12.62-7.58-10-12.16-16-15.77-25.49a54.65 54.65 0 0 1-3.23-12.5c-1-6.19-2.45-14.5-8.44-33.6l3.19-.95 7.25 12.55a1.71 1.71 0 0 0 1.48.85 1.66 1.66 0 0 0 .44-.06 1.7 1.7 0 0 0 1.27-1.65v-16.3l15.24-5.66a1.71 1.71 0 0 0-.1-3.23l-12-3.58 2.37-18.13a1.71 1.71 0 0 0-3.1-1.24l-10 13.81-12.06-2.55c-.82-17.37 8.3-24 16.61-30 1.17-.85 2.31-1.67 3.37-2.49 4.38-3.37 9.4-8.65 14.64-14.68l5.84 5.14a1.7 1.7 0 0 0 2.83-1.28v-14.19l4.46-5.46c4.26-5.23 8.29-10.17 11.94-14.35 2.36-2.7 4.68-5.64 7-8.68l9.47-2.43 8.69 9.43a1.7 1.7 0 0 0 3-1.16v-20.11l13.91-7.7a1.71 1.71 0 0 0-.57-3.18l-12.48-1.91a86.59 86.59 0 0 1 11.36-9.84c5.91-4.22 16.47-10.51 28.79-17l.74 2.39-12.26 15.93a1.71 1.71 0 0 0 2.21 2.52l17.76-10.33L169.36 631a1.71 1.71 0 0 0 3.06-1v-18.62l17-8.9a1.71 1.71 0 0 0-.79-3.22h-16.22v-3.43c17.63-8.1 35.46-14.73 46.88-15.65v6.69l-10.4 7.51a1.71 1.71 0 0 0-.62 1.92 1.67 1.67 0 0 0 1.62 1.08l17-.27 14.12 16.45a1.71 1.71 0 0 0 3-1.11v-14.38l14.25 2a1.69 1.69 0 0 0 1.8-1 1.71 1.71 0 0 0-.47-2l-13.89-11.56v-.23a307.91 307.91 0 0 1 36.31 15.85 1.68 1.68 0 0 0 .34.9l19 23.17a1.71 1.71 0 0 0 3-1.28l-1.32-11.14c1.41 1 3.78 2.52 6.83 4.52 10.4 6.84 29.77 19.56 43 29.45 12.87 9.66 18 25.2 22.19 37.69 1 3.09 2 6 3 8.59 3.64 9.3-4 27.6-7.19 33.87a3.31 3.31 0 0 0-.26.91c-2.71-16.05-3.64-39.1-3.32-41.53a3.42 3.42 0 0 0-2.93-3.83 3.38 3.38 0 0 0-3.83 2.91c-.26 1.9 0 11 .81 21.59l-10.77 2.43a1.71 1.71 0 0 0-.54 3.11l12.63 7.89a136 136 0 0 0 2.89 16.68c3.61 13.92 2.38 46.83-9.15 70.38-2.6-4.66-4.9-10.06-4.9-20.06 0-24.62-7.38-98.69-7.69-101.83a3.41 3.41 0 0 0-3.73-3.06 3.35 3.35 0 0 0-2.58 1.76l-1.45-3.06 5.91-12.62a1.71 1.71 0 0 0-2.3-2.25l-9.09 4.47-5.38-11.63a1.71 1.71 0 0 0-3.25.83l1 15.19-7.64 7.81a1.7 1.7 0 0 0 .91 2.87l8.18 1.49 3.23 21.4a1.7 1.7 0 0 0 1.66 1.45 1.7 1.7 0 0 0 1.68-1.39l2.77-14.73 4.17 1.3c1.15 12 3.19 34 4.73 54.19a1.62 1.62 0 0 0-.4.17l-5.68 4.26a1.71 1.71 0 0 0 .16 2.84l6.73 3.95c.74 10.81 1.23 20.37 1.23 26.56a50.59 50.59 0 0 0 1.73 13.77l-4.62-6.25a1.71 1.71 0 0 0-3.08 1.14l1.2 15.85-15.9 7.18a1.71 1.71 0 0 0 .15 3.17l16.7 5.69 4.39 14.1a1.71 1.71 0 0 0 1.63 1.2h.08a1.71 1.71 0 0 0 1.59-1.36l2.8-13.56h4.49v.35c-1 6.94-1.12 23.6-1.22 42.88 0 5.28-.06 11.15-.12 17.16l-14.16 7.1a1.71 1.71 0 0 0 .27 3.16l13.67 4.16c-.25 11.39-.71 22-1.59 28.64-17.19-29.27-42.22-77.68-46.65-94.64-1-3.68-2.95-9.67-5.62-17.18l4.74-.59a1.71 1.71 0 0 0 .85-3l-9.71-7.67-1.12-3 4.26-15.68a1.71 1.71 0 0 0-2.83-1.67l-5.84 5.65c-5.86-15.39-12.59-32.57-18.86-48.4h7.7a1.71 1.71 0 0 0 1-3.06l-12.79-9.81a1.66 1.66 0 0 0-1.19-.29v-.09h.09a1.71 1.71 0 0 0 1.35-1.62l.45-16.84a1.71 1.71 0 0 0-2.83-1.33l-5.17 4.55c-5.92-14.72-10.15-25.11-10.73-26.52a3.413 3.413 0 1 0-6.32 2.58c.17.43 6.33 15.54 14.51 36a1.67 1.67 0 0 0-1 1l-3.4 10.23a1.71 1.71 0 0 0 1.62 2.24h8.2c8.24 20.72 17.52 44.35 24.69 63.46l-12.18-5.33V783.5a1.71 1.71 0 0 0-3.08-1l-10.2 13.71-15.45-5.35a1.71 1.71 0 0 0-2 2.59l11.34 16.21-7.19 13.79a1.71 1.71 0 0 0 2.07 2.4l14.66-5.1 10.71 16.57a1.7 1.7 0 0 0 1.43.78 1.68 1.68 0 0 0 .55-.09 1.7 1.7 0 0 0 1.15-1.75l-1.65-21.12 12.17-2.64c4.38 11.85 7.68 21.35 9 26.31 5.11 19.59 34.95 76.4 52.3 104.58a1.66 1.66 0 0 0-.77-.25h-16.22l-1.57-17.21a1.71 1.71 0 0 0-3-.91l-10.37 13-14.35-4.22a1.71 1.71 0 0 0-1.93 2.55l8.52 13.51-8.58 15.75a1.71 1.71 0 0 0 2.19 2.38l14.39-6.35 14.46 14.39a1.7 1.7 0 0 0 1.2.5 1.75 1.75 0 0 0 .66-.13 1.71 1.71 0 0 0 1-1.58v-18.17l14.56-10.43a1.64 1.64 0 0 0 .63-1.47 126.67 126.67 0 0 0 8.74 12.8l.52.62a234.1 234.1 0 0 1 16.82 22l-1.6 7.34-12.88-1.9a1.74 1.74 0 0 0-1.74.86 1.7 1.7 0 0 0 .2 1.93l8.57 10-8.77 15.81a1.71 1.71 0 0 0 2.18 2.39l13-5.71 3.34 6.62a1.7 1.7 0 0 0 1.42.93h.1a1.7 1.7 0 0 0 1.42-.77l5.31-8.06a1.69 1.69 0 0 0 .28-.94v-9c5.69 12.78 9.09 27 6.45 41.19l-.89 4.77c-1.44 7.71-2.52 13.54-3.2 18l-6.59-1.09-5.64-18.16a1.71 1.71 0 0 0-1.58-1.2 1.66 1.66 0 0 0-1.65 1.11l-6.75 18.09H353.2a1.71 1.71 0 0 0-1.15 3l14.51 13.3-6.18 16.84a1.71 1.71 0 0 0 2.69 1.9l12.86-10.7 13.42 9a1.71 1.71 0 0 0 2.65-1.63l-2.46-19.25 1.52-1.79c.29 4.5 2.29 5.73 6.49 7 .49.14 1 .3 1.6.5 2.8.95 9.08 8.23 15.3 17.14l-2.63 2.2a1.7 1.7 0 0 0 .79 3l6 1.09c2.3 3.6 4.46 7.28 6.32 10.79l-4.62 14a1.71 1.71 0 0 0 3 1.56l5.51-7.26c.07.19.17.4.24.59a3.36 3.36 0 0 0 .65 1.08c.23.26 21.07 23.83 31 46a1.63 1.63 0 0 0-.42 0l-10.08 3.3-5.87-18a1.64 1.64 0 0 0-1.75-1.17 1.71 1.71 0 0 0-1.56 1.42l-3.59 21.18h-13.03a1.71 1.71 0 0 0-1 3.09l11.66 8.45v18.75a1.71 1.71 0 0 0 2.68 1.4l13.08-9 10.88 5.32a1.71 1.71 0 0 0 2.27-2.31l-7.68-15.08 5.79-14.2c.47 1.16.93 2.31 1.32 3.45a3.42 3.42 0 0 0 1.4 1.77c.2.13 10.29 6.67 21.94 19.94 0 0-.05.05-.07.09l-2.11 4.81h-8a1.71 1.71 0 0 0-1 3.06l14.69 11.29v17.08a1.71 1.71 0 0 0 1.37 1.67 1.64 1.64 0 0 0 .33 0 1.7 1.7 0 0 0 1.58-1.05l4.86-11.77 6.84 1.4a139.48 139.48 0 0 1 12.69 33 3.413 3.413 0 0 0 6.63-1.62c-12.81-52.16-48.46-78.46-55.09-82.97zM117.8 954.38v4.9c-1.75-3.63-3.92-8.09-6.36-13.09zm-95.44-200l3.91 4-1.79 4.81a89.22 89.22 0 0 1-2.12-8.81zm318.29.78l1.8-1.35.62 1.67.08 1.16z"/>
  <path class="d" d="M502.89 1256.25l-.23-.19c-7.2-6-34.86-27.56-88.41-51.36a3.41 3.41 0 1 0-2.77 6.23c52.74 23.44 79.77 44.47 86.8 50.35a3.71 3.71 0 0 0 2.61 1.1 3.41 3.41 0 0 0 2-6.13zM417.04 185.81a3.41 3.41 0 0 0-2.87 3.88c.46 3.09.81 9-.21 11.83a3.41 3.41 0 1 0 6.41 2.33c1.95-5.35.7-14.19.55-15.18a3.39 3.39 0 0 0-3.88-2.86zM171.69 379.61a1.71 1.71 0 0 0 1.86-2.57l-6-9.42 9.74-6.74a1.71 1.71 0 0 0-.81-3.1l-16.32-1.52-3.89-2.73a1.7 1.7 0 0 0-2.1.11l-6.52 5.74-17.85 5.58a1.7 1.7 0 0 0 .12 3.29l13.28 3.13 1 13.85a1.71 1.71 0 0 0 2.92 1.07l10.12-10.3zM248.89 416.62a1.68 1.68 0 0 0 .89-.25 1.71 1.71 0 0 0 .75-1.93l-4.55-15.64a1.7 1.7 0 0 0-.54-.82l-18.76-15.92a1.72 1.72 0 0 0-.75-.37l-19.05-4a1.71 1.71 0 0 0-1.42 3l16 12.86-6 15.32a1.71 1.71 0 0 0 2.56 2l13.87-9.68 15.77 15a1.7 1.7 0 0 0 1.23.43zM189.35 415.23l4.67-2.84a1.71 1.71 0 0 0-.77-3.16l-16.06-1.09-2.95-3.43a1.71 1.71 0 0 0-2.78.27l-3.38 6-15.76 5.75a1.71 1.71 0 0 0 .28 3.28l10.62 2 2.36 14a1.71 1.71 0 0 0 1.27 1.37 1.71 1.71 0 0 0 1.77-.62l8.49-11.11 21.47 3.13a1.68 1.68 0 0 0 1.77-.93 1.71 1.71 0 0 0-.33-2zM123.25 404.31L110.74 411l-3.71-6.08a1.71 1.71 0 0 0-3.13.56l-2.74 14.16-11.27 10.91a1.71 1.71 0 0 0 1.19 2.93h7.68v12.9a1.71 1.71 0 0 0 1.21 1.63 1.74 1.74 0 0 0 .49.07 1.71 1.71 0 0 0 1.42-.76l9.16-13.84h9.6a1.71 1.71 0 0 0 1.55-2.42l-4.75-10.26 8.09-14.14a1.71 1.71 0 0 0-2.28-2.35zM98.36 373.44a1.71 1.71 0 0 0-.35-1.77l-4.26-4.55a1.71 1.71 0 0 0-1.25-.54H69.18a1.71 1.71 0 0 0-1.22.51l-5.68 5.83a1.71 1.71 0 0 0 1.22 2.9h8.16l1.8 14.56a1.7 1.7 0 0 0 1.43 1.48h.26a1.7 1.7 0 0 0 1.55-1l7-15.16 13.19-1.16a1.7 1.7 0 0 0 1.47-1.1zM62.89 435.1l5.1-19.72a1.7 1.7 0 0 0-2.88-1.61l-9.43 9.76-6.47-8.47a1.71 1.71 0 0 0-3.06 1l-.55 19-7.64 10.32a1.7 1.7 0 0 0 1.37 2.72h11.38l6.67 16a1.7 1.7 0 0 0 1.57 1 1.61 1.61 0 0 0 .31 0 1.7 1.7 0 0 0 1.4-1.62l.51-15.37h10.86a1.7 1.7 0 0 0 1.19-2.93zM53.66 487.13a1.7 1.7 0 0 0-2.15.18l-7.35 7.07-2-7a1.71 1.71 0 0 0-3.34.35l-1.11 14.77-7.22 13.62a1.71 1.71 0 0 0 2.07 2.41l5.55-1.92 3.59 17.43a1.7 1.7 0 0 0 1.67 1.36h.12a1.71 1.71 0 0 0 1.53-1.7v-13.78l4.77 1a1.71 1.71 0 0 0 2-2l-3.3-15.68 5.77-14a1.7 1.7 0 0 0-.6-2.11zM261.59 667.01a1.71 1.71 0 0 0 1.41 1.17l16.74 2.2 7.51 17.4a1.71 1.71 0 0 0 1.57 1h.13a1.71 1.71 0 0 0 1.52-1.28l4-15.36 10.07 2.56a1.7 1.7 0 0 0 1.75-2.73l-11.34-14V643.2a1.71 1.71 0 0 0-2.78-1.33l-8.52 6.88-15.87-10.8a1.7 1.7 0 0 0-2.52 2.09l6.91 15.85-10.06 9.35a1.71 1.71 0 0 0-.52 1.77zM297.82 747.6a1.71 1.71 0 0 0 1.6 1.25l17.86.5 5.8 17.21a1.7 1.7 0 0 0 1.62 1.16h.09a1.7 1.7 0 0 0 1.58-1.33l3.6-15.93 8.49-5.17a1.71 1.71 0 0 0 .34-2.65l-26.91-27.7a1.71 1.71 0 0 0-2.87 1.66l5.47 19-16 10.08a1.71 1.71 0 0 0-.67 1.92zM197.66 682.38a1.72 1.72 0 0 0 1.94.27l14.67-7.47 10.08 12.92a1.71 1.71 0 0 0 3.05-1v-17.23l13.43-1.68a1.71 1.71 0 0 0 .84-3l-12.4-9.81-2.32-16.28a1.71 1.71 0 0 0-1.27-1.41 1.69 1.69 0 0 0-1.79.69l-9.76 13.27-14.72-5.39a1.71 1.71 0 0 0-2.11 2.36l7.32 14.67-7.37 17.21a1.71 1.71 0 0 0 .41 1.88zM177.56 689.86a1.71 1.71 0 0 0-1.25-1.4l-14.73-4-2-18.2a1.71 1.71 0 0 0-1.31-1.48 1.69 1.69 0 0 0-1.83.75l-10.55 16.9h-14a1.7 1.7 0 0 0-1.29 2.83l9.44 10.86-9.63 16.81a1.71 1.71 0 0 0 2.31 2.34l13.74-7.66 11.43 12.64a1.71 1.71 0 0 0 3-1.27l-1.21-16.88 17.1-10.54a1.71 1.71 0 0 0 .78-1.7zM111.82 724.9a1.7 1.7 0 0 0-1.23-1.46l-11-3.15-4.43-15.3a1.71 1.71 0 0 0-1.62-1.23 1.71 1.71 0 0 0-1.63 1.2l-3.94 12.42h-6.85a1.7 1.7 0 0 0-1.65 2.13l3.23 12.71-5.45 14.86a1.71 1.71 0 0 0 2.73 1.87l8.12-7.17 6.05 10.17a1.71 1.71 0 0 0 3.17-1l-.8-16.83 14.39-7.6a1.7 1.7 0 0 0 .91-1.62zM54.32 832.71a1.71 1.71 0 0 0 1.93.59l19.95-7 11.2 16.2a1.7 1.7 0 0 0 1.4.74 1.74 1.74 0 0 0 .51-.08 1.71 1.71 0 0 0 1.2-1.63v-20l13.83-8.88a1.71 1.71 0 0 0-.52-3.09l-14.51-3.5 1.19-19.9a1.71 1.71 0 0 0-3.22-.87l-9.3 18.33-18-5.55a1.7 1.7 0 0 0-1.88 2.64l8.93 12.22-12.73 17.76a1.71 1.71 0 0 0 .02 2.02zM169.64 779.87a1.71 1.71 0 0 0-1.14-1.6l-14-5-2-18.13a1.7 1.7 0 0 0-1.4-1.49 1.68 1.68 0 0 0-1.83.92l-7.66 15.45-18.89-4a1.71 1.71 0 0 0-1.74 2.66l10.54 14.81-10.63 15.69a1.71 1.71 0 0 0 2.09 2.52l16.66-7.2 12 12.77a1.71 1.71 0 0 0 2.94-1.35l-2-18.71 15.9-5.73a1.7 1.7 0 0 0 1.16-1.61zM239.17 747.49a1.71 1.71 0 0 0-1.34-1.48l-16.7-3.63-4.72-19.43a1.71 1.71 0 0 0-1.43-1.29 1.69 1.69 0 0 0-1.72.87l-8.95 16.18-15.1-5.86a1.71 1.71 0 0 0-2 2.54l9.66 14.49-9.74 17.86a1.7 1.7 0 0 0 2.18 2.38l16.75-7.27 12.36 14.53a1.71 1.71 0 0 0 3-1.11v-19.23l16.77-7.81a1.71 1.71 0 0 0 .98-1.74zM231.13 831.11a1.71 1.71 0 0 0-1.61-1.13h-15l-2.91-20.28a1.71 1.71 0 0 0-3.11-.7l-10.38 15.57-17.55-5.38a1.71 1.71 0 0 0-1.88 2.64l12.51 17.15-9.55 13.93a1.7 1.7 0 0 0 1.89 2.6l16.15-4.82 12.11 12.88a1.71 1.71 0 0 0 1.24.54 1.74 1.74 0 0 0 .63-.12 1.71 1.71 0 0 0 1.08-1.59v-16.29l15.88-13.1a1.71 1.71 0 0 0 .5-1.9zM115.58 887.73a1.71 1.71 0 0 0 2 .57l16.83-6.41 11.37 12.37a1.71 1.71 0 0 0 3-1.15v-18.4l14.34-9a1.71 1.71 0 0 0-.71-3.14l-15.59-1.76-1.31-19.43a1.71 1.71 0 0 0-3.11-.86l-11.33 16.52-13.85-2.31a1.71 1.71 0 0 0-1.67 2.67l10.34 14.52-10.31 13.76a1.71 1.71 0 0 0 0 2.05zM223.49 920.38a1.71 1.71 0 0 0-1.64-1.24H206.5v-20a1.71 1.71 0 0 0-3.11-1l-12 17.47-14.88-5.61a1.71 1.71 0 0 0-2 2.55l9.23 13.83-5.32 18a1.71 1.71 0 0 0 2.58 1.9l12.89-8.58 11.81 13.25a1.71 1.71 0 0 0 3-1.33l-2-17.27 16.14-10.09a1.7 1.7 0 0 0 .65-1.88zM291.36 887.38h-16.72l-3.06-20.34a1.7 1.7 0 0 0-3-.79L257.8 880.2l-16.94-2a1.67 1.67 0 0 0-1.73.93 1.7 1.7 0 0 0 .29 1.94l13.47 14.18-10.69 15.33a1.71 1.71 0 0 0 1.9 2.61l16.08-4.88 12.71 14.07a1.71 1.71 0 0 0 3-1.14v-18.05l16.53-12.75a1.71 1.71 0 0 0-1.06-3.06zM286.2 976.3a1.71 1.71 0 0 0-1.49-1.31l-16.46-1.71-2.82-17.75a1.71 1.71 0 0 0-3-.78l-11 14.17-17.67-2a1.72 1.72 0 0 0-1.69.88 1.7 1.7 0 0 0 .19 1.9l12.34 14.9-8.57 16a1.71 1.71 0 0 0 2.19 2.37l16.57-7.21 14 14.13a1.7 1.7 0 0 0 2.9-1.45l-3-19.83 16.82-10.49a1.71 1.71 0 0 0 .69-1.82zM173.17 1030.61a1.7 1.7 0 0 0 1.77.6l17.23-4.41 9.13 12.3a1.71 1.71 0 0 0 3.08-1v-16.91l15.76-8.88a1.71 1.71 0 0 0-.62-3.18l-15.39-1.94-3.58-20.13a1.71 1.71 0 0 0-3.11-.63l-9.57 14.7-15.4-4.72a1.71 1.71 0 0 0-1.94 2.55l10.12 15.76-7.62 14a1.71 1.71 0 0 0 .14 1.89zM328.97 1004.48a1.7 1.7 0 0 0-1.91.67l-11.37 16.63-17.74-2a1.66 1.66 0 0 0-1.72.94 1.7 1.7 0 0 0 .3 1.94l12.36 12.72-10.29 18.08a1.71 1.71 0 0 0 2.36 2.31l15.28-9.1 10.45 11.35a1.71 1.71 0 0 0 1.26.55 1.68 1.68 0 0 0 .6-.11 1.71 1.71 0 0 0 1.11-1.55l.52-17.78 14.91-8.06a1.71 1.71 0 0 0-.45-3.17l-14.43-3.12v-18.67a1.7 1.7 0 0 0-1.24-1.63zM281.22 1065.81a1.71 1.71 0 0 0-1.38-1.26l-14.61-2.36-2.83-17.55a1.7 1.7 0 0 0-3.12-.64l-9.62 15.14-14.13-3.93a1.73 1.73 0 0 0-1.82.62 1.71 1.71 0 0 0-.09 1.92l8.87 14.51-8.91 16.19a1.71 1.71 0 0 0 2.11 2.41l18.88-7.23 10.88 13.53a1.71 1.71 0 0 0 3-1.14l-.75-18.32 12.89-10.12a1.7 1.7 0 0 0 .63-1.77zM300.89 1142.38a1.71 1.71 0 0 0 2.69 1.89l15.06-12.39 14.42 10.33a1.71 1.71 0 0 0 2.63-1.87l-5.8-19.34 13.41-10.8a1.71 1.71 0 0 0-1.07-3h-16.12l-3.43-17.82a1.71 1.71 0 0 0-3.29-.23l-6.25 18.14-18.09 1.61a1.71 1.71 0 0 0-.9 3l13.74 10.78zM281.24 1152.91a1.71 1.71 0 0 0-1.37-1.35l-15.26-2.79-3.93-15.9a1.71 1.71 0 0 0-3-.57l-9.19 13-14.53-3.92a1.71 1.71 0 0 0-1.82 2.66l9.51 12.85-5.76 13.14a1.7 1.7 0 0 0 2.06 2.31l14.66-4.43 16.28 12.68a1.71 1.71 0 0 0 2.72-1.72l-3.72-16.31 12.56-7.89a1.71 1.71 0 0 0 .79-1.76zM369.89 1178.81a1.71 1.71 0 0 0 2.91 1.58l11.34-12.52 14.11 10.19a1.71 1.71 0 0 0 2.66-1.78l-4.16-17.49 12.75-14.69a1.71 1.71 0 0 0-1.69-2.78l-14.37 3.5-8-18.71a1.71 1.71 0 0 0-3.24.31l-4 18.69h-16.47a1.71 1.71 0 0 0-.9 3.16l14.71 9.14zM353.2 1188.62h-17.21l-6.5-15.17a1.71 1.71 0 0 0-3.14 0l-6.46 15.2-18.73.4a1.71 1.71 0 0 0-1.15 2.93l11.47 11.07-8.1 16.33a1.7 1.7 0 0 0 2.26 2.3l18.87-8.95 14.89 10.91a1.71 1.71 0 0 0 2.69-1.68l-3.13-17.37 15.35-13a1.7 1.7 0 0 0-1.11-2.97zM417.21 1224.03l-11.86 1.53-5.77-16.18a1.7 1.7 0 0 0-3.08-.29l-9.79 16.73-17 1.62a1.71 1.71 0 0 0-.83 3.09l11.49 8.16-6.08 14.52a1.7 1.7 0 0 0 2.38 2.16l18.1-9.71 12.45 9.56a1.7 1.7 0 0 0 2.7-1.74l-3.76-16 12.42-10.41a1.71 1.71 0 0 0-1.37-3.04z"/>
  <path class="d" d="M473.27 1246.69l-11.69 3.34-3-12.76a1.7 1.7 0 0 0-1.56-1.31 1.73 1.73 0 0 0-1.7 1.12l-5.56 15.42-14.79 4.88a1.71 1.71 0 0 0 .53 3.33h31.13a1.71 1.71 0 0 0 1.42-.76l7.11-10.66a1.71 1.71 0 0 0-1.89-2.6z"/>
</svg>
